<?xml version="1.0" encoding="UTF-8" standalone="no"?><!DOCTYPE svg PUBLIC "-//W3C//DTD SVG 1.1//EN" "http://www.w3.org/Graphics/SVG/1.1/DTD/svg11.dtd"><!-- Generated by graphviz version 2.40.1 (20161225.0304)
 --><!-- Title: dependency&#45;cruiser output Pages: 1 --><svg xmlns="http://www.w3.org/2000/svg" xmlns:xlink="http://www.w3.org/1999/xlink" width="524pt" height="765pt" viewBox="0.00 0.00 523.55 764.57">
<g id="graph0" class="graph" transform="scale(1 1) rotate(0) translate(4 760.5714)">
<title>dependency-cruiser output</title>
<polygon fill="#ffffff" stroke="transparent" points="-4,4 -4,-760.5714 519.5455,-760.5714 519.5455,4 -4,4"/>
<g id="clust1" class="cluster">
<title>cluster_node_modules</title>
<path fill="#ffffff" stroke="#000000" stroke-width="2" d="M415.5402,-48.5714C415.5402,-48.5714 492.0455,-48.5714 492.0455,-48.5714 498.0455,-48.5714 504.0455,-54.5714 504.0455,-60.5714 504.0455,-60.5714 504.0455,-306.5714 504.0455,-306.5714 504.0455,-312.5714 498.0455,-318.5714 492.0455,-318.5714 492.0455,-318.5714 415.5402,-318.5714 415.5402,-318.5714 409.5402,-318.5714 403.5402,-312.5714 403.5402,-306.5714 403.5402,-306.5714 403.5402,-60.5714 403.5402,-60.5714 403.5402,-54.5714 409.5402,-48.5714 415.5402,-48.5714"/>
<text text-anchor="middle" x="453.7928" y="-306.4714" font-family="Helvetica,sans-Serif" font-weight="bold" font-size="9.00" fill="#000000">node_modules</text>
</g>
<g id="clust2" class="cluster">
<title>cluster_src</title>
<path fill="#ffffff" stroke="#000000" stroke-width="2" d="M20,-352.5714C20,-352.5714 495.5455,-352.5714 495.5455,-352.5714 501.5455,-352.5714 507.5455,-358.5714 507.5455,-364.5714 507.5455,-364.5714 507.5455,-736.5714 507.5455,-736.5714 507.5455,-742.5714 501.5455,-748.5714 495.5455,-748.5714 495.5455,-748.5714 20,-748.5714 20,-748.5714 14,-748.5714 8,-742.5714 8,-736.5714 8,-736.5714 8,-364.5714 8,-364.5714 8,-358.5714 14,-352.5714 20,-352.5714"/>
<text text-anchor="middle" x="257.7727" y="-736.4714" font-family="Helvetica,sans-Serif" font-weight="bold" font-size="9.00" fill="#000000">src</text>
</g>
<g id="clust3" class="cluster">
<title>cluster_src/components</title>
<path fill="#ffffff" stroke="#000000" stroke-width="2" d="M430.0369,-514.5714C430.0369,-514.5714 477.5487,-514.5714 477.5487,-514.5714 483.5487,-514.5714 489.5487,-520.5714 489.5487,-526.5714 489.5487,-526.5714 489.5487,-648.5714 489.5487,-648.5714 489.5487,-654.5714 483.5487,-660.5714 477.5487,-660.5714 477.5487,-660.5714 430.0369,-660.5714 430.0369,-660.5714 424.0369,-660.5714 418.0369,-654.5714 418.0369,-648.5714 418.0369,-648.5714 418.0369,-526.5714 418.0369,-526.5714 418.0369,-520.5714 424.0369,-514.5714 430.0369,-514.5714"/>
<text text-anchor="middle" x="453.7928" y="-648.4714" font-family="Helvetica,sans-Serif" font-weight="bold" font-size="9.00" fill="#000000">components</text>
</g>
<g id="clust4" class="cluster">
<title>cluster_src/controllers</title>
<path fill="#ffffff" stroke="#000000" stroke-width="2" d="M198.0193,-387.5714C198.0193,-387.5714 284.5281,-387.5714 284.5281,-387.5714 290.5281,-387.5714 296.5281,-393.5714 296.5281,-399.5714 296.5281,-399.5714 296.5281,-521.5714 296.5281,-521.5714 296.5281,-527.5714 290.5281,-533.5714 284.5281,-533.5714 284.5281,-533.5714 198.0193,-533.5714 198.0193,-533.5714 192.0193,-533.5714 186.0193,-527.5714 186.0193,-521.5714 186.0193,-521.5714 186.0193,-399.5714 186.0193,-399.5714 186.0193,-393.5714 192.0193,-387.5714 198.0193,-387.5714"/>
<text text-anchor="middle" x="241.2737" y="-521.4714" font-family="Helvetica,sans-Serif" font-weight="bold" font-size="9.00" fill="#000000">controllers</text>
</g>
<g id="clust5" class="cluster">
<title>cluster_src/dao</title>
<path fill="#ffffff" stroke="#000000" stroke-width="2" d="M316.5281,-469.5714C316.5281,-469.5714 383.5402,-469.5714 383.5402,-469.5714 389.5402,-469.5714 395.5402,-475.5714 395.5402,-481.5714 395.5402,-481.5714 395.5402,-603.5714 395.5402,-603.5714 395.5402,-609.5714 389.5402,-615.5714 383.5402,-615.5714 383.5402,-615.5714 316.5281,-615.5714 316.5281,-615.5714 310.5281,-615.5714 304.5281,-609.5714 304.5281,-603.5714 304.5281,-603.5714 304.5281,-481.5714 304.5281,-481.5714 304.5281,-475.5714 310.5281,-469.5714 316.5281,-469.5714"/>
<text text-anchor="middle" x="350.0341" y="-603.4714" font-family="Helvetica,sans-Serif" font-weight="bold" font-size="9.00" fill="#000000">dao</text>
</g>
<g id="clust7" class="cluster">
<title>cluster_src/errors</title>
<path fill="#ffffff" stroke="#000000" stroke-width="2" d="M420.0402,-360.5714C420.0402,-360.5714 487.5455,-360.5714 487.5455,-360.5714 493.5455,-360.5714 499.5455,-366.5714 499.5455,-372.5714 499.5455,-372.5714 499.5455,-494.5714 499.5455,-494.5714 499.5455,-500.5714 493.5455,-506.5714 487.5455,-506.5714 487.5455,-506.5714 420.0402,-506.5714 420.0402,-506.5714 414.0402,-506.5714 408.0402,-500.5714 408.0402,-494.5714 408.0402,-494.5714 408.0402,-372.5714 408.0402,-372.5714 408.0402,-366.5714 414.0402,-360.5714 420.0402,-360.5714"/>
<text text-anchor="middle" x="453.7928" y="-494.4714" font-family="Helvetica,sans-Serif" font-weight="bold" font-size="9.00" fill="#000000">errors</text>
</g>
<g id="clust6" class="cluster">
<title>cluster_src/db</title>
<path fill="#ffffff" stroke="#000000" stroke-width="2" d="M325.5268,-668.5714C325.5268,-668.5714 476.7928,-668.5714 476.7928,-668.5714 482.7928,-668.5714 488.7928,-674.5714 488.7928,-680.5714 488.7928,-680.5714 488.7928,-709.5714 488.7928,-709.5714 488.7928,-715.5714 482.7928,-721.5714 476.7928,-721.5714 476.7928,-721.5714 325.5268,-721.5714 325.5268,-721.5714 319.5268,-721.5714 313.5268,-715.5714 313.5268,-709.5714 313.5268,-709.5714 313.5268,-680.5714 313.5268,-680.5714 313.5268,-674.5714 319.5268,-668.5714 325.5268,-668.5714"/>
<text text-anchor="middle" x="401.1598" y="-709.4714" font-family="Helvetica,sans-Serif" font-weight="bold" font-size="9.00" fill="#000000">db</text>
</g>
<g id="clust8" class="cluster">
<title>cluster_src/routers</title>
<path fill="#ffffff" stroke="#000000" stroke-width="2" d="M90,-360.5714C90,-360.5714 166.0193,-360.5714 166.0193,-360.5714 172.0193,-360.5714 178.0193,-366.5714 178.0193,-372.5714 178.0193,-372.5714 178.0193,-525.5714 178.0193,-525.5714 178.0193,-531.5714 172.0193,-537.5714 166.0193,-537.5714 166.0193,-537.5714 90,-537.5714 90,-537.5714 84,-537.5714 78,-531.5714 78,-525.5714 78,-525.5714 78,-372.5714 78,-372.5714 78,-366.5714 84,-360.5714 90,-360.5714"/>
<text text-anchor="middle" x="128.0096" y="-525.4714" font-family="Helvetica,sans-Serif" font-weight="bold" font-size="9.00" fill="#000000">routers</text>
</g>
<!-- crypto -->
<g id="node1" class="node">
<title>crypto</title>
<g id="a_node1"><a xlink:href="https://nodejs.org/api/crypto.html" xlink:title="crypto">
<path fill="#ffffcc" stroke="#c0c0c0" d="M474.5921,-344.8725C474.5921,-344.8725 432.9936,-344.8725 432.9936,-344.8725 429.8932,-344.8725 426.7928,-341.7721 426.7928,-338.6718 426.7928,-338.6718 426.7928,-332.4711 426.7928,-332.4711 426.7928,-329.3707 429.8932,-326.2704 432.9936,-326.2704 432.9936,-326.2704 474.5921,-326.2704 474.5921,-326.2704 477.6925,-326.2704 480.7928,-329.3707 480.7928,-332.4711 480.7928,-332.4711 480.7928,-338.6718 480.7928,-338.6718 480.7928,-341.7721 477.6925,-344.8725 474.5921,-344.8725"/>
<text text-anchor="middle" x="453.7928" y="-332.8714" font-family="Helvetica,sans-Serif" font-size="9.00" fill="#c0c0c0">crypto</text>
</a>
</g>
</g>
<!-- node_modules/dayjs -->
<g id="node2" class="node">
<title>node_modules/dayjs</title>
<g id="a_node2"><a xlink:href="https://www.npmjs.com/package/dayjs" xlink:title="dayjs">
<polygon fill="#c40b0a" fill-opacity="0.101961" stroke="#000000" points="480.7928,-260.8725 428.8598,-260.8725 426.7928,-258.8056 426.7928,-242.2704 478.7259,-242.2704 480.7928,-244.3373 480.7928,-260.8725"/>
<polyline fill="none" stroke="#000000" points="478.7259,-258.8056 426.7928,-258.8056 "/>
<polyline fill="none" stroke="#000000" points="478.7259,-258.8056 478.7259,-242.2704 "/>
<polyline fill="none" stroke="#000000" points="478.7259,-258.8056 480.7928,-260.8725 "/>
<text text-anchor="start" x="443.2912" y="-248.8714" font-family="Helvetica,sans-Serif" font-size="9.00" fill="#c40b0a">dayjs</text>
</a>
</g>
</g>
<!-- node_modules/express -->
<g id="node3" class="node">
<title>node_modules/express</title>
<g id="a_node3"><a xlink:href="https://www.npmjs.com/package/express" xlink:title="express">
<polygon fill="#c40b0a" fill-opacity="0.101961" stroke="#000000" points="480.7928,-105.8725 428.8598,-105.8725 426.7928,-103.8056 426.7928,-87.2704 478.7259,-87.2704 480.7928,-89.3373 480.7928,-105.8725"/>
<polyline fill="none" stroke="#000000" points="478.7259,-103.8056 426.7928,-103.8056 "/>
<polyline fill="none" stroke="#000000" points="478.7259,-103.8056 478.7259,-87.2704 "/>
<polyline fill="none" stroke="#000000" points="478.7259,-103.8056 480.7928,-105.8725 "/>
<text text-anchor="start" x="438.0401" y="-93.8714" font-family="Helvetica,sans-Serif" font-size="9.00" fill="#c40b0a">express</text>
</a>
</g>
</g>
<!-- node_modules/express&#45;session -->
<g id="node4" class="node">
<title>node_modules/express-session</title>
<g id="a_node4"><a xlink:href="https://www.npmjs.com/package/express-session" xlink:title="express-session">
<polygon fill="#c40b0a" fill-opacity="0.101961" stroke="#000000" points="494.3008,-167.8725 415.3519,-167.8725 413.2849,-165.8056 413.2849,-149.2704 492.2338,-149.2704 494.3008,-151.3373 494.3008,-167.8725"/>
<polyline fill="none" stroke="#000000" points="492.2338,-165.8056 413.2849,-165.8056 "/>
<polyline fill="none" stroke="#000000" points="492.2338,-165.8056 492.2338,-149.2704 "/>
<polyline fill="none" stroke="#000000" points="492.2338,-165.8056 494.3008,-167.8725 "/>
<text text-anchor="start" x="421.2889" y="-155.8714" font-family="Helvetica,sans-Serif" font-size="9.00" fill="#c40b0a">express-session</text>
</a>
</g>
</g>
<!-- node_modules/express&#45;validator -->
<g id="node5" class="node">
<title>node_modules/express-validator</title>
<g id="a_node5"><a xlink:href="https://www.npmjs.com/package/express-validator" xlink:title="express-validator">
<polygon fill="#c40b0a" fill-opacity="0.101961" stroke="#000000" points="495.7996,-136.8725 413.853,-136.8725 411.7861,-134.8056 411.7861,-118.2704 493.7327,-118.2704 495.7996,-120.3373 495.7996,-136.8725"/>
<polyline fill="none" stroke="#000000" points="493.7327,-134.8056 411.7861,-134.8056 "/>
<polyline fill="none" stroke="#000000" points="493.7327,-134.8056 493.7327,-118.2704 "/>
<polyline fill="none" stroke="#000000" points="493.7327,-134.8056 495.7996,-136.8725 "/>
<text text-anchor="start" x="419.5402" y="-124.8714" font-family="Helvetica,sans-Serif" font-size="9.00" fill="#c40b0a">express-validator</text>
</a>
</g>
</g>
<!-- node_modules/morgan -->
<g id="node6" class="node">
<title>node_modules/morgan</title>
<g id="a_node6"><a xlink:href="https://www.npmjs.com/package/morgan" xlink:title="morgan">
<polygon fill="#c40b0a" fill-opacity="0.101961" stroke="#000000" points="480.7928,-74.8725 428.8598,-74.8725 426.7928,-72.8056 426.7928,-56.2704 478.7259,-56.2704 480.7928,-58.3373 480.7928,-74.8725"/>
<polyline fill="none" stroke="#000000" points="478.7259,-72.8056 426.7928,-72.8056 "/>
<polyline fill="none" stroke="#000000" points="478.7259,-72.8056 478.7259,-56.2704 "/>
<polyline fill="none" stroke="#000000" points="478.7259,-72.8056 480.7928,-74.8725 "/>
<text text-anchor="start" x="438.5405" y="-62.8714" font-family="Helvetica,sans-Serif" font-size="9.00" fill="#c40b0a">morgan</text>
</a>
</g>
</g>
<!-- node_modules/passport -->
<g id="node7" class="node">
<title>node_modules/passport</title>
<g id="a_node7"><a xlink:href="https://www.npmjs.com/package/passport" xlink:title="passport">
<polygon fill="#c40b0a" fill-opacity="0.101961" stroke="#000000" points="480.7928,-229.8725 428.8598,-229.8725 426.7928,-227.8056 426.7928,-211.2704 478.7259,-211.2704 480.7928,-213.3373 480.7928,-229.8725"/>
<polyline fill="none" stroke="#000000" points="478.7259,-227.8056 426.7928,-227.8056 "/>
<polyline fill="none" stroke="#000000" points="478.7259,-227.8056 478.7259,-211.2704 "/>
<polyline fill="none" stroke="#000000" points="478.7259,-227.8056 480.7928,-229.8725 "/>
<text text-anchor="start" x="436.538" y="-217.8714" font-family="Helvetica,sans-Serif" font-size="9.00" fill="#c40b0a">passport</text>
</a>
</g>
</g>
<!-- node_modules/passport&#45;local -->
<g id="node8" class="node">
<title>node_modules/passport-local</title>
<g id="a_node8"><a xlink:href="https://www.npmjs.com/package/passport-local" xlink:title="passport-local">
<polygon fill="#c40b0a" fill-opacity="0.101961" stroke="#000000" points="489.799,-198.8725 419.8537,-198.8725 417.7867,-196.8056 417.7867,-180.2704 487.732,-180.2704 489.799,-182.3373 489.799,-198.8725"/>
<polyline fill="none" stroke="#000000" points="487.732,-196.8056 417.7867,-196.8056 "/>
<polyline fill="none" stroke="#000000" points="487.732,-196.8056 487.732,-180.2704 "/>
<polyline fill="none" stroke="#000000" points="487.732,-196.8056 489.799,-198.8725 "/>
<text text-anchor="start" x="425.7898" y="-186.8714" font-family="Helvetica,sans-Serif" font-size="9.00" fill="#c40b0a">passport-local</text>
</a>
</g>
</g>
<!-- node_modules/sqlite3 -->
<g id="node9" class="node">
<title>node_modules/sqlite3</title>
<g id="a_node9"><a xlink:href="https://www.npmjs.com/package/sqlite3" xlink:title="sqlite3">
<polygon fill="#c40b0a" fill-opacity="0.101961" stroke="#000000" points="480.7928,-291.8725 428.8598,-291.8725 426.7928,-289.8056 426.7928,-273.2704 478.7259,-273.2704 480.7928,-275.3373 480.7928,-291.8725"/>
<polyline fill="none" stroke="#000000" points="478.7259,-289.8056 426.7928,-289.8056 "/>
<polyline fill="none" stroke="#000000" points="478.7259,-289.8056 478.7259,-273.2704 "/>
<polyline fill="none" stroke="#000000" points="478.7259,-289.8056 480.7928,-291.8725 "/>
<text text-anchor="start" x="440.7905" y="-279.8714" font-family="Helvetica,sans-Serif" font-size="9.00" fill="#c40b0a">sqlite3</text>
</a>
</g>
</g>
<!-- src/components/cart.ts -->
<g id="node10" class="node">
<title>src/components/cart.ts</title>
<g id="a_node10"><a xlink:href="src/components/cart.ts" xlink:title="cart.ts">
<path fill="#ddfeff" stroke="#000000" d="M474.5921,-602.8725C474.5921,-602.8725 432.9936,-602.8725 432.9936,-602.8725 429.8932,-602.8725 426.7928,-599.7721 426.7928,-596.6718 426.7928,-596.6718 426.7928,-590.4711 426.7928,-590.4711 426.7928,-587.3707 429.8932,-584.2704 432.9936,-584.2704 432.9936,-584.2704 474.5921,-584.2704 474.5921,-584.2704 477.6925,-584.2704 480.7928,-587.3707 480.7928,-590.4711 480.7928,-590.4711 480.7928,-596.6718 480.7928,-596.6718 480.7928,-599.7721 477.6925,-602.8725 474.5921,-602.8725"/>
<text text-anchor="start" x="441.5416" y="-590.8714" font-family="Helvetica,sans-Serif" font-size="9.00" fill="#000000">cart.ts</text>
</a>
</g>
</g>
<!-- src/components/product.ts -->
<g id="node11" class="node">
<title>src/components/product.ts</title>
<g id="a_node11"><a xlink:href="src/components/product.ts" xlink:title="product.ts">
<path fill="#ddfeff" stroke="#000000" d="M475.1061,-540.8725C475.1061,-540.8725 432.4796,-540.8725 432.4796,-540.8725 429.3793,-540.8725 426.2789,-537.7721 426.2789,-534.6718 426.2789,-534.6718 426.2789,-528.4711 426.2789,-528.4711 426.2789,-525.3707 429.3793,-522.2704 432.4796,-522.2704 432.4796,-522.2704 475.1061,-522.2704 475.1061,-522.2704 478.2064,-522.2704 481.3068,-525.3707 481.3068,-528.4711 481.3068,-528.4711 481.3068,-534.6718 481.3068,-534.6718 481.3068,-537.7721 478.2064,-540.8725 475.1061,-540.8725"/>
<text text-anchor="start" x="434.0369" y="-528.8714" font-family="Helvetica,sans-Serif" font-size="9.00" fill="#000000">product.ts</text>
</a>
</g>
</g>
<!-- src/components/review.ts -->
<g id="node12" class="node">
<title>src/components/review.ts</title>
<g id="a_node12"><a xlink:href="src/components/review.ts" xlink:title="review.ts">
<path fill="#ddfeff" stroke="#000000" d="M474.5921,-571.8725C474.5921,-571.8725 432.9936,-571.8725 432.9936,-571.8725 429.8932,-571.8725 426.7928,-568.7721 426.7928,-565.6718 426.7928,-565.6718 426.7928,-559.4711 426.7928,-559.4711 426.7928,-556.3707 429.8932,-553.2704 432.9936,-553.2704 432.9936,-553.2704 474.5921,-553.2704 474.5921,-553.2704 477.6925,-553.2704 480.7928,-556.3707 480.7928,-559.4711 480.7928,-559.4711 480.7928,-565.6718 480.7928,-565.6718 480.7928,-568.7721 477.6925,-571.8725 474.5921,-571.8725"/>
<text text-anchor="start" x="436.0435" y="-559.8714" font-family="Helvetica,sans-Serif" font-size="9.00" fill="#000000">review.ts</text>
</a>
</g>
</g>
<!-- src/components/user.ts -->
<g id="node13" class="node">
<title>src/components/user.ts</title>
<g id="a_node13"><a xlink:href="src/components/user.ts" xlink:title="user.ts">
<path fill="#ddfeff" stroke="#000000" d="M474.5921,-633.8725C474.5921,-633.8725 432.9936,-633.8725 432.9936,-633.8725 429.8932,-633.8725 426.7928,-630.7721 426.7928,-627.6718 426.7928,-627.6718 426.7928,-621.4711 426.7928,-621.4711 426.7928,-618.3707 429.8932,-615.2704 432.9936,-615.2704 432.9936,-615.2704 474.5921,-615.2704 474.5921,-615.2704 477.6925,-615.2704 480.7928,-618.3707 480.7928,-621.4711 480.7928,-621.4711 480.7928,-627.6718 480.7928,-627.6718 480.7928,-630.7721 477.6925,-633.8725 474.5921,-633.8725"/>
<text text-anchor="start" x="440.2906" y="-621.8714" font-family="Helvetica,sans-Serif" font-size="9.00" fill="#000000">user.ts</text>
</a>
</g>
</g>
<!-- src/controllers/cartController.ts -->
<g id="node14" class="node">
<title>src/controllers/cartController.ts</title>
<g id="a_node14"><a xlink:href="src/controllers/cartController.ts" xlink:title="cartController.ts">
<path fill="#ddfeff" stroke="#000000" d="M275.0741,-506.8725C275.0741,-506.8725 207.4733,-506.8725 207.4733,-506.8725 204.373,-506.8725 201.2726,-503.7721 201.2726,-500.6718 201.2726,-500.6718 201.2726,-494.4711 201.2726,-494.4711 201.2726,-491.3707 204.373,-488.2704 207.4733,-488.2704 207.4733,-488.2704 275.0741,-488.2704 275.0741,-488.2704 278.1744,-488.2704 281.2748,-491.3707 281.2748,-494.4711 281.2748,-494.4711 281.2748,-500.6718 281.2748,-500.6718 281.2748,-503.7721 278.1744,-506.8725 275.0741,-506.8725"/>
<text text-anchor="start" x="209.5239" y="-494.8714" font-family="Helvetica,sans-Serif" font-size="9.00" fill="#000000">cartController.ts</text>
</a>
</g>
</g>
<!-- src/dao/cartDAO.ts -->
<g id="node15" class="node">
<title>src/dao/cartDAO.ts</title>
<g id="a_node15"><a xlink:href="src/dao/cartDAO.ts" xlink:title="cartDAO.ts">
<path fill="#ddfeff" stroke="#000000" d="M373.8362,-557.8725C373.8362,-557.8725 326.2321,-557.8725 326.2321,-557.8725 323.1317,-557.8725 320.0313,-554.7721 320.0313,-551.6718 320.0313,-551.6718 320.0313,-545.4711 320.0313,-545.4711 320.0313,-542.3707 323.1317,-539.2704 326.2321,-539.2704 326.2321,-539.2704 373.8362,-539.2704 373.8362,-539.2704 376.9366,-539.2704 380.037,-542.3707 380.037,-545.4711 380.037,-545.4711 380.037,-551.6718 380.037,-551.6718 380.037,-554.7721 376.9366,-557.8725 373.8362,-557.8725"/>
<text text-anchor="start" x="328.0327" y="-545.8714" font-family="Helvetica,sans-Serif" font-size="9.00" fill="#000000">cartDAO.ts</text>
</a>
</g>
</g>
<!-- src/controllers/cartController.ts&#45;&gt;src/dao/cartDAO.ts -->
<g id="edge1" class="edge">
<title>src/controllers/cartController.ts-&gt;src/dao/cartDAO.ts</title>
<path fill="none" stroke="#000000" stroke-width="2" stroke-opacity="0.200000" d="M256.4998,-506.9433C269.0873,-514.4578 287.5807,-524.9677 304.5281,-532.5714 307.9377,-534.1012 311.5414,-535.5839 315.1679,-536.9893"/>
<polygon fill="#000000" fill-opacity="0.200000" stroke="#000000" stroke-width="2" stroke-opacity="0.200000" points="314.5056,-538.9837 320.8608,-539.13 315.9839,-535.0525 314.5056,-538.9837"/>
</g>
<!-- src/errors/cartError.ts -->
<g id="node16" class="node">
<title>src/errors/cartError.ts</title>
<g id="a_node16"><a xlink:href="src/errors/cartError.ts" xlink:title="cartError.ts">
<path fill="#ddfeff" stroke="#000000" d="M478.0902,-479.8725C478.0902,-479.8725 429.4955,-479.8725 429.4955,-479.8725 426.3952,-479.8725 423.2948,-476.7721 423.2948,-473.6718 423.2948,-473.6718 423.2948,-467.4711 423.2948,-467.4711 423.2948,-464.3707 426.3952,-461.2704 429.4955,-461.2704 429.4955,-461.2704 478.0902,-461.2704 478.0902,-461.2704 481.1905,-461.2704 484.2909,-464.3707 484.2909,-467.4711 484.2909,-467.4711 484.2909,-473.6718 484.2909,-473.6718 484.2909,-476.7721 481.1905,-479.8725 478.0902,-479.8725"/>
<text text-anchor="start" x="431.5448" y="-467.8714" font-family="Helvetica,sans-Serif" font-size="9.00" fill="#000000">cartError.ts</text>
</a>
</g>
</g>
<!-- src/controllers/cartController.ts&#45;&gt;src/errors/cartError.ts -->
<g id="edge2" class="edge">
<title>src/controllers/cartController.ts-&gt;src/errors/cartError.ts</title>
<path fill="none" stroke="#000000" stroke-width="2" stroke-opacity="0.200000" d="M281.2304,-490.2104C286.7324,-488.0362 292.029,-485.2197 296.5281,-481.5714 302.3967,-476.8126 298.0493,-470.4587 304.5281,-466.5714 339.1221,-445.815 386.8175,-451.7729 418.901,-459.6359"/>
<polygon fill="#000000" fill-opacity="0.200000" stroke="#000000" stroke-width="2" stroke-opacity="0.200000" points="418.7673,-461.7696 425.101,-461.2266 419.8111,-457.7013 418.7673,-461.7696"/>
</g>
<!-- src/dao/cartDAO.ts&#45;&gt;node_modules/dayjs -->
<g id="edge16" class="edge">
<title>src/dao/cartDAO.ts-&gt;node_modules/dayjs</title>
<path fill="none" stroke="#000000" stroke-opacity="0.200000" d="M380.3172,-543.5841C386.2462,-541.206 391.7831,-537.7088 395.5402,-532.5714 412.9293,-508.7936 385.798,-291.087 403.5402,-267.5714 407.7623,-261.9755 413.9537,-258.2956 420.559,-255.8862"/>
<polygon fill="#000000" fill-opacity="0.200000" stroke="#000000" stroke-opacity="0.200000" points="421.5715,-257.7729 426.6967,-254.0122 420.345,-253.7559 421.5715,-257.7729"/>
</g>
<!-- src/dao/cartDAO.ts&#45;&gt;src/components/cart.ts -->
<g id="edge12" class="edge">
<title>src/dao/cartDAO.ts-&gt;src/components/cart.ts</title>
<path fill="none" stroke="#000000" stroke-width="2" stroke-opacity="0.200000" d="M380.4415,-556.001C385.8186,-558.1923 391.1073,-560.9968 395.5402,-564.5714 400.8212,-568.83 398.1962,-573.3922 403.5402,-577.5714 408.6756,-581.5875 414.8419,-584.6073 421.0683,-586.8744"/>
<polygon fill="#000000" fill-opacity="0.200000" stroke="#000000" stroke-width="2" stroke-opacity="0.200000" points="420.4197,-588.8717 426.7755,-588.7517 421.7322,-584.882 420.4197,-588.8717"/>
</g>
<!-- src/dao/cartDAO.ts&#45;&gt;src/errors/cartError.ts -->
<g id="edge14" class="edge">
<title>src/dao/cartDAO.ts-&gt;src/errors/cartError.ts</title>
<path fill="none" stroke="#000000" stroke-width="2" stroke-opacity="0.200000" d="M380.0735,-542.1781C385.7329,-539.8861 391.2218,-536.7795 395.5402,-532.5714 402.6933,-525.6011 397.6947,-519.6698 403.5402,-511.5714 411.509,-500.5314 423.1618,-490.7732 433.2403,-483.5491"/>
<polygon fill="#000000" fill-opacity="0.200000" stroke="#000000" stroke-width="2" stroke-opacity="0.200000" points="434.6084,-485.1558 438.3394,-480.0089 432.2131,-481.7057 434.6084,-485.1558"/>
</g>
<!-- src/errors/productError.ts -->
<g id="node19" class="node">
<title>src/errors/productError.ts</title>
<g id="a_node19"><a xlink:href="src/errors/productError.ts" xlink:title="productError.ts">
<path fill="#ddfeff" stroke="#000000" d="M485.0991,-386.8725C485.0991,-386.8725 422.4866,-386.8725 422.4866,-386.8725 419.3863,-386.8725 416.2859,-383.7721 416.2859,-380.6718 416.2859,-380.6718 416.2859,-374.4711 416.2859,-374.4711 416.2859,-371.3707 419.3863,-368.2704 422.4866,-368.2704 422.4866,-368.2704 485.0991,-368.2704 485.0991,-368.2704 488.1994,-368.2704 491.2998,-371.3707 491.2998,-374.4711 491.2998,-374.4711 491.2998,-380.6718 491.2998,-380.6718 491.2998,-383.7721 488.1994,-386.8725 485.0991,-386.8725"/>
<text text-anchor="start" x="424.0402" y="-374.8714" font-family="Helvetica,sans-Serif" font-size="9.00" fill="#000000">productError.ts</text>
</a>
</g>
</g>
<!-- src/dao/cartDAO.ts&#45;&gt;src/errors/productError.ts -->
<g id="edge15" class="edge">
<title>src/dao/cartDAO.ts-&gt;src/errors/productError.ts</title>
<path fill="none" stroke="#000000" stroke-width="2" stroke-opacity="0.200000" d="M380.2137,-543.5073C386.148,-541.1332 391.7133,-537.657 395.5402,-532.5714 414.1436,-507.849 384.5698,-418.0134 403.5402,-393.5714 405.4735,-391.0806 407.796,-388.9703 410.368,-387.1833"/>
<polygon fill="#000000" fill-opacity="0.200000" stroke="#000000" stroke-width="2" stroke-opacity="0.200000" points="411.812,-388.774 415.9532,-383.951 409.7082,-385.1389 411.812,-388.774"/>
</g>
<!-- src/db/db.ts -->
<g id="node26" class="node">
<title>src/db/db.ts</title>
<g id="a_node26"><a xlink:href="src/db/db.ts" xlink:title="db.ts">
<path fill="#ddfeff" stroke="#000000" d="M474.5921,-694.8725C474.5921,-694.8725 432.9936,-694.8725 432.9936,-694.8725 429.8932,-694.8725 426.7928,-691.7721 426.7928,-688.6718 426.7928,-688.6718 426.7928,-682.4711 426.7928,-682.4711 426.7928,-679.3707 429.8932,-676.2704 432.9936,-676.2704 432.9936,-676.2704 474.5921,-676.2704 474.5921,-676.2704 477.6925,-676.2704 480.7928,-679.3707 480.7928,-682.4711 480.7928,-682.4711 480.7928,-688.6718 480.7928,-688.6718 480.7928,-691.7721 477.6925,-694.8725 474.5921,-694.8725"/>
<text text-anchor="start" x="444.0386" y="-682.8714" font-family="Helvetica,sans-Serif" font-size="9.00" fill="#000000">db.ts</text>
</a>
</g>
</g>
<!-- src/dao/cartDAO.ts&#45;&gt;src/db/db.ts -->
<g id="edge13" class="edge">
<title>src/dao/cartDAO.ts-&gt;src/db/db.ts</title>
<path fill="none" stroke="#000000" stroke-width="2" stroke-opacity="0.200000" d="M380.1268,-553.7017C386.0656,-556.0724 391.6548,-559.5305 395.5402,-564.5714 409.0145,-582.053 390.7267,-645.5999 403.5402,-663.5714 407.8597,-669.6297 414.2229,-674.0393 420.9802,-677.2421"/>
<polygon fill="#000000" fill-opacity="0.200000" stroke="#000000" stroke-width="2" stroke-opacity="0.200000" points="420.3682,-679.263 426.7128,-679.6584 421.9995,-675.3928 420.3682,-679.263"/>
</g>
<!-- src/controllers/productController.ts -->
<g id="node17" class="node">
<title>src/controllers/productController.ts</title>
<g id="a_node17"><a xlink:href="src/controllers/productController.ts" xlink:title="productController.ts">
<path fill="#ddfeff" stroke="#000000" d="M282.0831,-413.8725C282.0831,-413.8725 200.4643,-413.8725 200.4643,-413.8725 197.364,-413.8725 194.2636,-410.7721 194.2636,-407.6718 194.2636,-407.6718 194.2636,-401.4711 194.2636,-401.4711 194.2636,-398.3707 197.364,-395.2704 200.4643,-395.2704 200.4643,-395.2704 282.0831,-395.2704 282.0831,-395.2704 285.1834,-395.2704 288.2838,-398.3707 288.2838,-401.4711 288.2838,-401.4711 288.2838,-407.6718 288.2838,-407.6718 288.2838,-410.7721 285.1834,-413.8725 282.0831,-413.8725"/>
<text text-anchor="start" x="202.0193" y="-401.8714" font-family="Helvetica,sans-Serif" font-size="9.00" fill="#000000">productController.ts</text>
</a>
</g>
</g>
<!-- src/controllers/productController.ts&#45;&gt;node_modules/dayjs -->
<g id="edge5" class="edge">
<title>src/controllers/productController.ts-&gt;node_modules/dayjs</title>
<path fill="none" stroke="#000000" stroke-opacity="0.200000" d="M288.5264,-396.6902C291.3771,-395.249 294.078,-393.5568 296.5281,-391.5714 303.0158,-386.3142 298.3309,-380.1681 304.5281,-374.5714 336.3494,-345.8335 368.9315,-376.1934 395.5402,-342.5714 416.3435,-316.285 382.3468,-293.5444 403.5402,-267.5714 407.9277,-262.1944 414.1225,-258.5988 420.6697,-256.2012"/>
<polygon fill="#000000" fill-opacity="0.200000" stroke="#000000" stroke-opacity="0.200000" points="421.6307,-258.1019 426.7397,-254.3193 420.387,-254.0903 421.6307,-258.1019"/>
</g>
<!-- src/dao/productDAO.ts -->
<g id="node18" class="node">
<title>src/dao/productDAO.ts</title>
<g id="a_node18"><a xlink:href="src/dao/productDAO.ts" xlink:title="productDAO.ts">
<path fill="#ddfeff" stroke="#000000" d="M381.3455,-495.8725C381.3455,-495.8725 318.7228,-495.8725 318.7228,-495.8725 315.6224,-495.8725 312.522,-492.7721 312.522,-489.6718 312.522,-489.6718 312.522,-483.4711 312.522,-483.4711 312.522,-480.3707 315.6224,-477.2704 318.7228,-477.2704 318.7228,-477.2704 381.3455,-477.2704 381.3455,-477.2704 384.4459,-477.2704 387.5463,-480.3707 387.5463,-483.4711 387.5463,-483.4711 387.5463,-489.6718 387.5463,-489.6718 387.5463,-492.7721 384.4459,-495.8725 381.3455,-495.8725"/>
<text text-anchor="start" x="320.5281" y="-483.8714" font-family="Helvetica,sans-Serif" font-size="9.00" fill="#000000">productDAO.ts</text>
</a>
</g>
</g>
<!-- src/controllers/productController.ts&#45;&gt;src/dao/productDAO.ts -->
<g id="edge3" class="edge">
<title>src/controllers/productController.ts-&gt;src/dao/productDAO.ts</title>
<path fill="none" stroke="#000000" stroke-width="2" stroke-opacity="0.200000" d="M283.8035,-413.9632C288.279,-415.7954 292.6167,-417.9767 296.5281,-420.5714 316.2779,-433.6728 332.3135,-456.3269 341.5174,-471.3819"/>
<polygon fill="#000000" fill-opacity="0.200000" stroke="#000000" stroke-width="2" stroke-opacity="0.200000" points="339.9456,-472.8481 344.8143,-476.9354 343.5572,-470.704 339.9456,-472.8481"/>
</g>
<!-- src/controllers/productController.ts&#45;&gt;src/errors/productError.ts -->
<g id="edge4" class="edge">
<title>src/controllers/productController.ts-&gt;src/errors/productError.ts</title>
<path fill="none" stroke="#000000" stroke-width="2" stroke-opacity="0.200000" d="M288.4386,-398.5792C324.7362,-393.9677 374.523,-387.6424 409.9589,-383.1404"/>
<polygon fill="#000000" fill-opacity="0.200000" stroke="#000000" stroke-width="2" stroke-opacity="0.200000" points="410.272,-385.2176 415.9595,-382.3781 409.7426,-381.0511 410.272,-385.2176"/>
</g>
<!-- src/dao/productDAO.ts&#45;&gt;node_modules/dayjs -->
<g id="edge20" class="edge">
<title>src/dao/productDAO.ts-&gt;node_modules/dayjs</title>
<path fill="none" stroke="#000000" stroke-opacity="0.200000" d="M356.2948,-477.1397C366.6215,-461.015 386.9375,-426.7639 395.5402,-394.5714 399.1905,-380.9117 394.8408,-278.7175 403.5402,-267.5714 407.8101,-262.1006 413.9569,-258.4667 420.4949,-256.0617"/>
<polygon fill="#000000" fill-opacity="0.200000" stroke="#000000" stroke-opacity="0.200000" points="421.4565,-257.9623 426.5664,-254.181 420.2137,-253.9504 421.4565,-257.9623"/>
</g>
<!-- src/dao/productDAO.ts&#45;&gt;src/components/product.ts -->
<g id="edge17" class="edge">
<title>src/dao/productDAO.ts-&gt;src/components/product.ts</title>
<path fill="none" stroke="#000000" stroke-width="2" stroke-opacity="0.200000" d="M381.5821,-495.8914C386.396,-497.8131 391.201,-500.0379 395.5402,-502.5714 399.6202,-504.9536 399.5518,-507.0389 403.5402,-509.5714 409.388,-513.2846 415.9694,-516.6638 422.3956,-519.5989"/>
<polygon fill="#000000" fill-opacity="0.200000" stroke="#000000" stroke-width="2" stroke-opacity="0.200000" points="421.8904,-521.671 428.2279,-522.1665 423.5827,-517.827 421.8904,-521.671"/>
</g>
<!-- src/dao/productDAO.ts&#45;&gt;src/errors/productError.ts -->
<g id="edge19" class="edge">
<title>src/dao/productDAO.ts-&gt;src/errors/productError.ts</title>
<path fill="none" stroke="#000000" stroke-width="2" stroke-opacity="0.200000" d="M358.2663,-477.2625C368.3928,-465.3612 385.4751,-443.7511 395.5402,-422.5714 401.279,-410.4954 394.2725,-403.2086 403.5402,-393.5714 405.6504,-391.3771 408.0602,-389.4829 410.6562,-387.8478"/>
<polygon fill="#000000" fill-opacity="0.200000" stroke="#000000" stroke-width="2" stroke-opacity="0.200000" points="411.9324,-389.545 416.2098,-384.8425 409.9334,-385.8512 411.9324,-389.545"/>
</g>
<!-- src/dao/productDAO.ts&#45;&gt;src/db/db.ts -->
<g id="edge18" class="edge">
<title>src/dao/productDAO.ts-&gt;src/db/db.ts</title>
<path fill="none" stroke="#000000" stroke-width="2" stroke-opacity="0.200000" d="M387.8572,-495.5116C390.798,-497.4282 393.4364,-499.7527 395.5402,-502.5714 416.9665,-531.2789 383.1986,-634.0854 403.5402,-663.5714 407.7653,-669.6959 414.0918,-674.1312 420.8435,-677.338"/>
<polygon fill="#000000" fill-opacity="0.200000" stroke="#000000" stroke-width="2" stroke-opacity="0.200000" points="420.2335,-679.3596 426.5782,-679.7528 421.8635,-675.4888 420.2335,-679.3596"/>
</g>
<!-- src/controllers/reviewController.ts -->
<g id="node20" class="node">
<title>src/controllers/reviewController.ts</title>
<g id="a_node20"><a xlink:href="src/controllers/reviewController.ts" xlink:title="reviewController.ts">
<path fill="#ddfeff" stroke="#000000" d="M280.5701,-475.8725C280.5701,-475.8725 201.9773,-475.8725 201.9773,-475.8725 198.877,-475.8725 195.7766,-472.7721 195.7766,-469.6718 195.7766,-469.6718 195.7766,-463.4711 195.7766,-463.4711 195.7766,-460.3707 198.877,-457.2704 201.9773,-457.2704 201.9773,-457.2704 280.5701,-457.2704 280.5701,-457.2704 283.6704,-457.2704 286.7708,-460.3707 286.7708,-463.4711 286.7708,-463.4711 286.7708,-469.6718 286.7708,-469.6718 286.7708,-472.7721 283.6704,-475.8725 280.5701,-475.8725"/>
<text text-anchor="start" x="204.0258" y="-463.8714" font-family="Helvetica,sans-Serif" font-size="9.00" fill="#000000">reviewController.ts</text>
</a>
</g>
</g>
<!-- src/dao/reviewDAO.ts -->
<g id="node21" class="node">
<title>src/dao/reviewDAO.ts</title>
<g id="a_node21"><a xlink:href="src/dao/reviewDAO.ts" xlink:title="reviewDAO.ts">
<path fill="#ddfeff" stroke="#000000" d="M379.3324,-526.8725C379.3324,-526.8725 320.7359,-526.8725 320.7359,-526.8725 317.6355,-526.8725 314.5351,-523.7721 314.5351,-520.6718 314.5351,-520.6718 314.5351,-514.4711 314.5351,-514.4711 314.5351,-511.3707 317.6355,-508.2704 320.7359,-508.2704 320.7359,-508.2704 379.3324,-508.2704 379.3324,-508.2704 382.4328,-508.2704 385.5332,-511.3707 385.5332,-514.4711 385.5332,-514.4711 385.5332,-520.6718 385.5332,-520.6718 385.5332,-523.7721 382.4328,-526.8725 379.3324,-526.8725"/>
<text text-anchor="start" x="322.5346" y="-514.8714" font-family="Helvetica,sans-Serif" font-size="9.00" fill="#000000">reviewDAO.ts</text>
</a>
</g>
</g>
<!-- src/controllers/reviewController.ts&#45;&gt;src/dao/reviewDAO.ts -->
<g id="edge6" class="edge">
<title>src/controllers/reviewController.ts-&gt;src/dao/reviewDAO.ts</title>
<path fill="none" stroke="#000000" stroke-width="2" stroke-opacity="0.200000" d="M286.5284,-475.8507C290.1426,-477.7001 293.5435,-479.9162 296.5281,-482.5714 303.3736,-488.6615 297.8565,-495.2912 304.5281,-501.5714 305.9916,-502.949 307.5806,-504.209 309.2588,-505.3612"/>
<polygon fill="#000000" fill-opacity="0.200000" stroke="#000000" stroke-width="2" stroke-opacity="0.200000" points="308.2961,-507.2322 314.5244,-508.5046 310.449,-503.6259 308.2961,-507.2322"/>
</g>
<!-- src/errors/reviewError.ts -->
<g id="node22" class="node">
<title>src/errors/reviewError.ts</title>
<g id="a_node22"><a xlink:href="src/errors/reviewError.ts" xlink:title="reviewError.ts">
<path fill="#ddfeff" stroke="#000000" d="M483.5861,-417.8725C483.5861,-417.8725 423.9996,-417.8725 423.9996,-417.8725 420.8993,-417.8725 417.7989,-414.7721 417.7989,-411.6718 417.7989,-411.6718 417.7989,-405.4711 417.7989,-405.4711 417.7989,-402.3707 420.8993,-399.2704 423.9996,-399.2704 423.9996,-399.2704 483.5861,-399.2704 483.5861,-399.2704 486.6864,-399.2704 489.7868,-402.3707 489.7868,-405.4711 489.7868,-405.4711 489.7868,-411.6718 489.7868,-411.6718 489.7868,-414.7721 486.6864,-417.8725 483.5861,-417.8725"/>
<text text-anchor="start" x="426.0467" y="-405.8714" font-family="Helvetica,sans-Serif" font-size="9.00" fill="#000000">reviewError.ts</text>
</a>
</g>
</g>
<!-- src/controllers/reviewController.ts&#45;&gt;src/errors/reviewError.ts -->
<g id="edge7" class="edge">
<title>src/controllers/reviewController.ts-&gt;src/errors/reviewError.ts</title>
<path fill="none" stroke="#000000" stroke-width="2" stroke-opacity="0.200000" d="M273.7511,-457.2258C283.6255,-454.4123 294.5132,-451.3381 304.5281,-448.5714 341.0146,-438.4918 382.6234,-427.3724 412.6249,-419.4211"/>
<polygon fill="#000000" fill-opacity="0.200000" stroke="#000000" stroke-width="2" stroke-opacity="0.200000" points="413.2031,-421.4405 418.4655,-417.8744 412.1278,-417.3804 413.2031,-421.4405"/>
</g>
<!-- src/dao/reviewDAO.ts&#45;&gt;node_modules/dayjs -->
<g id="edge24" class="edge">
<title>src/dao/reviewDAO.ts-&gt;node_modules/dayjs</title>
<path fill="none" stroke="#000000" stroke-opacity="0.200000" d="M385.7598,-509.9702C389.5545,-507.8255 392.9626,-505.0813 395.5402,-501.5714 410.939,-480.6032 387.8301,-288.3074 403.5402,-267.5714 407.7734,-261.9839 413.9694,-258.3074 420.5754,-255.8987"/>
<polygon fill="#000000" fill-opacity="0.200000" stroke="#000000" stroke-opacity="0.200000" points="421.5879,-257.7853 426.713,-254.0245 420.3612,-253.7684 421.5879,-257.7853"/>
</g>
<!-- src/dao/reviewDAO.ts&#45;&gt;src/components/review.ts -->
<g id="edge21" class="edge">
<title>src/dao/reviewDAO.ts-&gt;src/components/review.ts</title>
<path fill="none" stroke="#000000" stroke-width="2" stroke-opacity="0.200000" d="M384.6787,-526.8729C388.5585,-528.731 392.2807,-530.943 395.5402,-533.5714 400.8212,-537.83 398.1962,-542.3922 403.5402,-546.5714 408.6756,-550.5875 414.8419,-553.6073 421.0683,-555.8744"/>
<polygon fill="#000000" fill-opacity="0.200000" stroke="#000000" stroke-width="2" stroke-opacity="0.200000" points="420.4197,-557.8717 426.7755,-557.7517 421.7322,-553.882 420.4197,-557.8717"/>
</g>
<!-- src/dao/reviewDAO.ts&#45;&gt;src/errors/reviewError.ts -->
<g id="edge23" class="edge">
<title>src/dao/reviewDAO.ts-&gt;src/errors/reviewError.ts</title>
<path fill="none" stroke="#000000" stroke-width="2" stroke-opacity="0.200000" d="M385.9715,-509.5492C389.6296,-507.4717 392.9462,-504.8584 395.5402,-501.5714 416.8551,-474.5626 381.8245,-451.2591 403.5402,-424.5714 406.0052,-421.542 409.044,-419.0779 412.3969,-417.0749"/>
<polygon fill="#000000" fill-opacity="0.200000" stroke="#000000" stroke-width="2" stroke-opacity="0.200000" points="413.4848,-418.8779 417.8869,-414.2918 411.5857,-415.1317 413.4848,-418.8779"/>
</g>
<!-- src/dao/reviewDAO.ts&#45;&gt;src/db/db.ts -->
<g id="edge22" class="edge">
<title>src/dao/reviewDAO.ts-&gt;src/db/db.ts</title>
<path fill="none" stroke="#000000" stroke-width="2" stroke-opacity="0.200000" d="M385.669,-525.2403C389.4786,-527.3739 392.9149,-530.097 395.5402,-533.5714 412.989,-556.664 386.9641,-639.8446 403.5402,-663.5714 407.8014,-669.6709 414.1419,-674.0964 420.8958,-677.3017"/>
<polygon fill="#000000" fill-opacity="0.200000" stroke="#000000" stroke-width="2" stroke-opacity="0.200000" points="420.285,-679.323 426.6297,-679.717 421.9155,-675.4524 420.285,-679.323"/>
</g>
<!-- src/controllers/userController.ts -->
<g id="node23" class="node">
<title>src/controllers/userController.ts</title>
<g id="a_node23"><a xlink:href="src/controllers/userController.ts" xlink:title="userController.ts">
<path fill="#ddfeff" stroke="#000000" d="M276.0745,-444.8725C276.0745,-444.8725 206.4729,-444.8725 206.4729,-444.8725 203.3726,-444.8725 200.2722,-441.7721 200.2722,-438.6718 200.2722,-438.6718 200.2722,-432.4711 200.2722,-432.4711 200.2722,-429.3707 203.3726,-426.2704 206.4729,-426.2704 206.4729,-426.2704 276.0745,-426.2704 276.0745,-426.2704 279.1748,-426.2704 282.2752,-429.3707 282.2752,-432.4711 282.2752,-432.4711 282.2752,-438.6718 282.2752,-438.6718 282.2752,-441.7721 279.1748,-444.8725 276.0745,-444.8725"/>
<text text-anchor="start" x="208.2729" y="-432.8714" font-family="Helvetica,sans-Serif" font-size="9.00" fill="#000000">userController.ts</text>
</a>
</g>
</g>
<!-- src/controllers/userController.ts&#45;&gt;node_modules/dayjs -->
<g id="edge11" class="edge">
<title>src/controllers/userController.ts-&gt;node_modules/dayjs</title>
<path fill="none" stroke="#000000" stroke-opacity="0.200000" d="M282.3688,-428.6286C287.583,-426.3916 292.4954,-423.4464 296.5281,-419.5714 304.6355,-411.7811 296.4461,-403.3882 304.5281,-395.5714 334.856,-366.2387 368.9863,-401.3598 395.5402,-368.5714 409.71,-351.0748 389.5448,-285.2078 403.5402,-267.5714 407.8541,-262.1352 414.0189,-258.5155 420.5603,-256.1132"/>
<polygon fill="#000000" fill-opacity="0.200000" stroke="#000000" stroke-opacity="0.200000" points="421.5217,-258.0138 426.6313,-254.232 420.2785,-254.002 421.5217,-258.0138"/>
</g>
<!-- src/controllers/userController.ts&#45;&gt;src/errors/productError.ts -->
<g id="edge9" class="edge">
<title>src/controllers/userController.ts-&gt;src/errors/productError.ts</title>
<path fill="none" stroke="#000000" stroke-width="2" stroke-opacity="0.200000" d="M277.4978,-426.2082C308.8029,-418.0533 355.2317,-405.8078 395.5402,-394.5714 402.3586,-392.6707 409.6104,-390.5968 416.5986,-388.5714"/>
<polygon fill="#000000" fill-opacity="0.200000" stroke="#000000" stroke-width="2" stroke-opacity="0.200000" points="417.2167,-390.5787 422.3913,-386.8863 416.0435,-386.5459 417.2167,-390.5787"/>
</g>
<!-- src/dao/userDAO.ts -->
<g id="node24" class="node">
<title>src/dao/userDAO.ts</title>
<g id="a_node24"><a xlink:href="src/dao/userDAO.ts" xlink:title="userDAO.ts">
<path fill="#ddfeff" stroke="#000000" d="M374.8402,-588.8725C374.8402,-588.8725 325.2281,-588.8725 325.2281,-588.8725 322.1278,-588.8725 319.0274,-585.7721 319.0274,-582.6718 319.0274,-582.6718 319.0274,-576.4711 319.0274,-576.4711 319.0274,-573.3707 322.1278,-570.2704 325.2281,-570.2704 325.2281,-570.2704 374.8402,-570.2704 374.8402,-570.2704 377.9405,-570.2704 381.0409,-573.3707 381.0409,-576.4711 381.0409,-576.4711 381.0409,-582.6718 381.0409,-582.6718 381.0409,-585.7721 377.9405,-588.8725 374.8402,-588.8725"/>
<text text-anchor="start" x="326.7817" y="-576.8714" font-family="Helvetica,sans-Serif" font-size="9.00" fill="#000000">userDAO.ts</text>
</a>
</g>
</g>
<!-- src/controllers/userController.ts&#45;&gt;src/dao/userDAO.ts -->
<g id="edge8" class="edge">
<title>src/controllers/userController.ts-&gt;src/dao/userDAO.ts</title>
<path fill="none" stroke="#000000" stroke-width="2" stroke-opacity="0.200000" d="M282.4932,-441.2749C287.8901,-443.6708 292.8225,-446.9902 296.5281,-451.5714 312.2203,-470.9717 289.3876,-543.7376 304.5281,-563.5714 306.9291,-566.7167 309.994,-569.2459 313.3959,-571.2795"/>
<polygon fill="#000000" fill-opacity="0.200000" stroke="#000000" stroke-width="2" stroke-opacity="0.200000" points="312.6685,-573.2642 318.9723,-574.0842 314.5557,-569.5121 312.6685,-573.2642"/>
</g>
<!-- src/errors/userError.ts -->
<g id="node25" class="node">
<title>src/errors/userError.ts</title>
<g id="a_node25"><a xlink:href="src/errors/userError.ts" xlink:title="userError.ts">
<path fill="#ddfeff" stroke="#000000" d="M479.0901,-448.8725C479.0901,-448.8725 428.4956,-448.8725 428.4956,-448.8725 425.3952,-448.8725 422.2948,-445.7721 422.2948,-442.6718 422.2948,-442.6718 422.2948,-436.4711 422.2948,-436.4711 422.2948,-433.3707 425.3952,-430.2704 428.4956,-430.2704 428.4956,-430.2704 479.0901,-430.2704 479.0901,-430.2704 482.1905,-430.2704 485.2909,-433.3707 485.2909,-436.4711 485.2909,-436.4711 485.2909,-442.6718 485.2909,-442.6718 485.2909,-445.7721 482.1905,-448.8725 479.0901,-448.8725"/>
<text text-anchor="start" x="430.2938" y="-436.8714" font-family="Helvetica,sans-Serif" font-size="9.00" fill="#000000">userError.ts</text>
</a>
</g>
</g>
<!-- src/controllers/userController.ts&#45;&gt;src/errors/userError.ts -->
<g id="edge10" class="edge">
<title>src/controllers/userController.ts-&gt;src/errors/userError.ts</title>
<path fill="none" stroke="#000000" stroke-width="2" stroke-opacity="0.200000" d="M282.5015,-436.3474C321.0691,-437.0733 378.2085,-438.1488 415.7201,-438.8548"/>
<polygon fill="#000000" fill-opacity="0.200000" stroke="#000000" stroke-width="2" stroke-opacity="0.200000" points="415.9875,-440.9601 422.0259,-438.9735 416.0666,-436.7609 415.9875,-440.9601"/>
</g>
<!-- src/dao/userDAO.ts&#45;&gt;crypto -->
<g id="edge28" class="edge">
<title>src/dao/userDAO.ts-&gt;crypto</title>
<path fill="none" stroke="#000000" stroke-dasharray="5,2" stroke-opacity="0.200000" d="M381.2174,-574.1754C386.7939,-571.8112 391.9599,-568.423 395.5402,-563.5714 409.1415,-545.1406 390.6352,-376.4963 403.5402,-357.5714 407.7321,-351.4241 414.0456,-346.9799 420.7954,-343.7719"/>
<polygon fill="#000000" fill-opacity="0.200000" stroke="#000000" stroke-opacity="0.200000" points="421.8155,-345.621 426.5308,-341.3576 420.186,-341.7499 421.8155,-345.621"/>
</g>
<!-- src/dao/userDAO.ts&#45;&gt;src/components/user.ts -->
<g id="edge25" class="edge">
<title>src/dao/userDAO.ts-&gt;src/components/user.ts</title>
<path fill="none" stroke="#000000" stroke-width="2" stroke-opacity="0.200000" d="M381.1298,-584.7018C386.3213,-586.5667 391.3672,-589.1083 395.5402,-592.5714 401.6582,-597.6488 397.4989,-603.4029 403.5402,-608.5714 408.5473,-612.8551 414.7107,-615.9948 420.9846,-618.2951"/>
<polygon fill="#000000" fill-opacity="0.200000" stroke="#000000" stroke-width="2" stroke-opacity="0.200000" points="420.3918,-620.3107 426.7474,-620.1805 421.6978,-616.3189 420.3918,-620.3107"/>
</g>
<!-- src/dao/userDAO.ts&#45;&gt;src/errors/userError.ts -->
<g id="edge27" class="edge">
<title>src/dao/userDAO.ts-&gt;src/errors/userError.ts</title>
<path fill="none" stroke="#000000" stroke-width="2" stroke-opacity="0.200000" d="M381.0862,-574.0768C386.6722,-571.7197 391.8753,-568.3594 395.5402,-563.5714 410.1679,-544.4615 388.6288,-474.4609 403.5402,-455.5714 406.9565,-451.2437 411.5462,-448.0667 416.5682,-445.7385"/>
<polygon fill="#000000" fill-opacity="0.200000" stroke="#000000" stroke-width="2" stroke-opacity="0.200000" points="417.3445,-447.6898 422.1522,-443.531 415.8004,-443.784 417.3445,-447.6898"/>
</g>
<!-- src/dao/userDAO.ts&#45;&gt;src/db/db.ts -->
<g id="edge26" class="edge">
<title>src/dao/userDAO.ts-&gt;src/db/db.ts</title>
<path fill="none" stroke="#000000" stroke-width="2" stroke-opacity="0.200000" d="M353.7793,-588.9131C361.0173,-605.9044 378.4553,-642.0912 403.5402,-663.5714 408.6357,-667.9347 414.7316,-671.5624 420.8916,-674.529"/>
<polygon fill="#000000" fill-opacity="0.200000" stroke="#000000" stroke-width="2" stroke-opacity="0.200000" points="420.2065,-676.5235 426.5399,-677.0697 421.9295,-672.6932 420.2065,-676.5235"/>
</g>
<!-- src/db/db.ts&#45;&gt;node_modules/sqlite3 -->
<g id="edge30" class="edge">
<title>src/db/db.ts-&gt;node_modules/sqlite3</title>
<path fill="none" stroke="#000000" stroke-opacity="0.200000" d="M426.6537,-680.3696C414.9744,-676.4261 403.1646,-669.542 399.5402,-657.5714 394.2114,-639.9716 394.2114,-344.1713 399.5402,-326.5714 403.7153,-312.782 415.6997,-302.3151 427.3459,-295.0567"/>
<polygon fill="#000000" fill-opacity="0.200000" stroke="#000000" stroke-opacity="0.200000" points="428.5323,-296.7954 432.6438,-291.9471 426.4062,-293.1732 428.5323,-296.7954"/>
</g>
<!-- src/db/cleanup.ts -->
<g id="node27" class="node">
<title>src/db/cleanup.ts</title>
<g id="a_node27"><a xlink:href="src/db/cleanup.ts" xlink:title="cleanup.ts">
<path fill="#ddfeff" stroke="#000000" d="M372.3483,-694.8725C372.3483,-694.8725 327.72,-694.8725 327.72,-694.8725 324.6197,-694.8725 321.5193,-691.7721 321.5193,-688.6718 321.5193,-688.6718 321.5193,-682.4711 321.5193,-682.4711 321.5193,-679.3707 324.6197,-676.2704 327.72,-676.2704 327.72,-676.2704 372.3483,-676.2704 372.3483,-676.2704 375.4486,-676.2704 378.549,-679.3707 378.549,-682.4711 378.549,-682.4711 378.549,-688.6718 378.549,-688.6718 378.549,-691.7721 375.4486,-694.8725 372.3483,-694.8725"/>
<text text-anchor="start" x="329.5267" y="-682.8714" font-family="Helvetica,sans-Serif" font-size="9.00" fill="#000000">cleanup.ts</text>
</a>
</g>
</g>
<!-- src/db/cleanup.ts&#45;&gt;src/db/db.ts -->
<g id="edge29" class="edge">
<title>src/db/cleanup.ts-&gt;src/db/db.ts</title>
<path fill="none" stroke="#000000" stroke-width="2" stroke-opacity="0.200000" d="M378.6613,-685.5714C391.6657,-685.5714 407.1278,-685.5714 420.6347,-685.5714"/>
<polygon fill="#000000" fill-opacity="0.200000" stroke="#000000" stroke-width="2" stroke-opacity="0.200000" points="420.6871,-687.6715 426.6871,-685.5714 420.6871,-683.4715 420.6871,-687.6715"/>
</g>
<!-- src/helper.ts -->
<g id="node28" class="node">
<title>src/helper.ts</title>
<g id="a_node28"><a xlink:href="src/helper.ts" xlink:title="helper.ts">
<path fill="#ddfeff" stroke="#000000" d="M262.073,-379.8725C262.073,-379.8725 220.4744,-379.8725 220.4744,-379.8725 217.3741,-379.8725 214.2737,-376.7721 214.2737,-373.6718 214.2737,-373.6718 214.2737,-367.4711 214.2737,-367.4711 214.2737,-364.3707 217.3741,-361.2704 220.4744,-361.2704 220.4744,-361.2704 262.073,-361.2704 262.073,-361.2704 265.1733,-361.2704 268.2737,-364.3707 268.2737,-367.4711 268.2737,-367.4711 268.2737,-373.6718 268.2737,-373.6718 268.2737,-376.7721 265.1733,-379.8725 262.073,-379.8725"/>
<text text-anchor="start" x="224.0198" y="-367.8714" font-family="Helvetica,sans-Serif" font-size="9.00" fill="#000000">helper.ts</text>
</a>
</g>
</g>
<!-- src/helper.ts&#45;&gt;node_modules/express&#45;validator -->
<g id="edge31" class="edge">
<title>src/helper.ts-&gt;node_modules/express-validator</title>
<path fill="none" stroke="#000000" stroke-opacity="0.200000" d="M259.5912,-361.2397C293.3341,-342.9369 364.6779,-298.8023 395.5402,-238.5714 405.2014,-219.7167 390.3297,-160.1341 403.5402,-143.5714 404.5393,-142.3188 405.6367,-141.1626 406.8142,-140.0956"/>
<polygon fill="#000000" fill-opacity="0.200000" stroke="#000000" stroke-opacity="0.200000" points="408.1841,-141.6929 411.7148,-136.4066 405.6582,-138.3373 408.1841,-141.6929"/>
</g>
<!-- src/routers/auth.ts -->
<g id="node29" class="node">
<title>src/routers/auth.ts</title>
<g id="a_node29"><a xlink:href="src/routers/auth.ts" xlink:title="auth.ts">
<path fill="#ddfeff" stroke="#000000" d="M148.8089,-510.8725C148.8089,-510.8725 107.2104,-510.8725 107.2104,-510.8725 104.11,-510.8725 101.0096,-507.7721 101.0096,-504.6718 101.0096,-504.6718 101.0096,-498.4711 101.0096,-498.4711 101.0096,-495.3707 104.11,-492.2704 107.2104,-492.2704 107.2104,-492.2704 148.8089,-492.2704 148.8089,-492.2704 151.9093,-492.2704 155.0096,-495.3707 155.0096,-498.4711 155.0096,-498.4711 155.0096,-504.6718 155.0096,-504.6718 155.0096,-507.7721 151.9093,-510.8725 148.8089,-510.8725"/>
<text text-anchor="start" x="114.5033" y="-498.8714" font-family="Helvetica,sans-Serif" font-size="9.00" fill="#000000">auth.ts</text>
</a>
</g>
</g>
<!-- src/routers/auth.ts&#45;&gt;node_modules/express&#45;session -->
<g id="edge34" class="edge">
<title>src/routers/auth.ts-&gt;node_modules/express-session</title>
<path fill="none" stroke="#000000" stroke-opacity="0.200000" d="M155.1939,-498.9976C163.83,-496.7677 172.5485,-492.7487 178.0193,-485.5714 191.0303,-468.5019 172.5238,-309.2605 186.0193,-292.5714 246.4855,-217.7968 332.0264,-310.7753 395.5402,-238.5714 414.4733,-217.0478 385.2171,-196.6167 403.5402,-174.5714 404.8863,-172.9519 406.3961,-171.4943 408.0294,-170.1825"/>
<polygon fill="#000000" fill-opacity="0.200000" stroke="#000000" stroke-opacity="0.200000" points="409.4503,-171.7578 413.2594,-166.6686 407.1079,-168.2716 409.4503,-171.7578"/>
</g>
<!-- src/routers/auth.ts&#45;&gt;node_modules/passport -->
<g id="edge35" class="edge">
<title>src/routers/auth.ts-&gt;node_modules/passport</title>
<path fill="none" stroke="#000000" stroke-opacity="0.200000" d="M155.1239,-498.9439C163.754,-496.7092 172.4865,-492.7011 178.0193,-485.5714 196.58,-461.654 165.6802,-371.9961 186.0193,-349.5714 249.3509,-279.7457 330.7936,-385.0871 395.5402,-316.5714 407.8115,-303.5858 392.2905,-250.4514 403.5402,-236.5714 407.91,-231.18 414.0975,-227.5785 420.6433,-225.1797"/>
<polygon fill="#000000" fill-opacity="0.200000" stroke="#000000" stroke-opacity="0.200000" points="421.6044,-227.0804 426.7136,-223.298 420.3608,-223.0688 421.6044,-227.0804"/>
</g>
<!-- src/routers/auth.ts&#45;&gt;node_modules/passport&#45;local -->
<g id="edge36" class="edge">
<title>src/routers/auth.ts-&gt;node_modules/passport-local</title>
<path fill="none" stroke="#000000" stroke-opacity="0.200000" d="M155.1655,-498.9759C163.7991,-496.744 172.5233,-492.7295 178.0193,-485.5714 189.1974,-471.0129 173.663,-334.1443 186.0193,-320.5714 249.3463,-251.0094 330.6508,-358.6784 395.5402,-290.5714 408.6273,-276.8354 391.6371,-220.3453 403.5402,-205.5714 405.9528,-202.5769 408.9264,-200.1343 412.212,-198.1431"/>
<polygon fill="#000000" fill-opacity="0.200000" stroke="#000000" stroke-opacity="0.200000" points="413.2228,-199.9848 417.5961,-195.3713 411.3003,-196.2506 413.2228,-199.9848"/>
</g>
<!-- src/routers/auth.ts&#45;&gt;src/dao/userDAO.ts -->
<g id="edge32" class="edge">
<title>src/routers/auth.ts-&gt;src/dao/userDAO.ts</title>
<path fill="none" stroke="#000000" stroke-width="2" stroke-opacity="0.200000" d="M141.2506,-511.0733C152.6437,-518.8702 169.7662,-529.7066 186.0193,-536.5714 186.3941,-536.7297 264.5972,-557.2094 312.8686,-569.8449"/>
<polygon fill="#000000" fill-opacity="0.200000" stroke="#000000" stroke-width="2" stroke-opacity="0.200000" points="312.5534,-571.933 318.8896,-571.4209 313.617,-567.8699 312.5534,-571.933"/>
</g>
<!-- src/utilities.ts -->
<g id="node30" class="node">
<title>src/utilities.ts</title>
<g id="a_node30"><a xlink:href="src/utilities.ts" xlink:title="utilities.ts">
<path fill="#ddfeff" stroke="#000000" d="M262.073,-612.8725C262.073,-612.8725 220.4744,-612.8725 220.4744,-612.8725 217.3741,-612.8725 214.2737,-609.7721 214.2737,-606.6718 214.2737,-606.6718 214.2737,-600.4711 214.2737,-600.4711 214.2737,-597.3707 217.3741,-594.2704 220.4744,-594.2704 220.4744,-594.2704 262.073,-594.2704 262.073,-594.2704 265.1733,-594.2704 268.2737,-597.3707 268.2737,-600.4711 268.2737,-600.4711 268.2737,-606.6718 268.2737,-606.6718 268.2737,-609.7721 265.1733,-612.8725 262.073,-612.8725"/>
<text text-anchor="start" x="222.7742" y="-600.8714" font-family="Helvetica,sans-Serif" font-size="9.00" fill="#000000">utilities.ts</text>
</a>
</g>
</g>
<!-- src/routers/auth.ts&#45;&gt;src/utilities.ts -->
<g id="edge33" class="edge">
<title>src/routers/auth.ts-&gt;src/utilities.ts</title>
<path fill="none" stroke="#000000" stroke-width="2" stroke-opacity="0.200000" d="M135.7036,-511.1246C146.3118,-524.0024 166.357,-547.3047 186.0193,-564.5714 196.9373,-574.1592 210.2113,-583.5908 221.0123,-590.7769"/>
<polygon fill="#000000" fill-opacity="0.200000" stroke="#000000" stroke-width="2" stroke-opacity="0.200000" points="219.9269,-592.5764 226.0948,-594.115 222.2326,-589.0659 219.9269,-592.5764"/>
</g>
<!-- src/utilities.ts&#45;&gt;src/components/user.ts -->
<g id="edge61" class="edge">
<title>src/utilities.ts-&gt;src/components/user.ts</title>
<path fill="none" stroke="#000000" stroke-width="2" stroke-opacity="0.200000" d="M268.4556,-611.2304C279.5509,-614.038 292.5642,-616.9281 304.5281,-618.5714 344.1074,-624.0081 390.1003,-625.0744 420.4574,-625.0614"/>
<polygon fill="#000000" fill-opacity="0.200000" stroke="#000000" stroke-width="2" stroke-opacity="0.200000" points="420.6961,-627.1608 426.69,-625.0435 420.6839,-622.9609 420.6961,-627.1608"/>
</g>
<!-- src/routers/cartRoutes.ts -->
<g id="node31" class="node">
<title>src/routers/cartRoutes.ts</title>
<g id="a_node31"><a xlink:href="src/routers/cartRoutes.ts" xlink:title="cartRoutes.ts">
<path fill="#ddfeff" stroke="#000000" d="M156.3189,-479.8725C156.3189,-479.8725 99.7004,-479.8725 99.7004,-479.8725 96.6,-479.8725 93.4996,-476.7721 93.4996,-473.6718 93.4996,-473.6718 93.4996,-467.4711 93.4996,-467.4711 93.4996,-464.3707 96.6,-461.2704 99.7004,-461.2704 99.7004,-461.2704 156.3189,-461.2704 156.3189,-461.2704 159.4193,-461.2704 162.5197,-464.3707 162.5197,-467.4711 162.5197,-467.4711 162.5197,-473.6718 162.5197,-473.6718 162.5197,-476.7721 159.4193,-479.8725 156.3189,-479.8725"/>
<text text-anchor="start" x="101.5046" y="-467.8714" font-family="Helvetica,sans-Serif" font-size="9.00" fill="#000000">cartRoutes.ts</text>
</a>
</g>
</g>
<!-- src/routers/cartRoutes.ts&#45;&gt;node_modules/express -->
<g id="edge39" class="edge">
<title>src/routers/cartRoutes.ts-&gt;node_modules/express</title>
<path fill="none" stroke="#000000" stroke-opacity="0.200000" d="M162.756,-465.5699C168.6916,-463.1667 174.1734,-459.6632 178.0193,-454.5714 194.4352,-432.8376 170.8209,-232.1734 186.0193,-209.5714 245.0861,-121.7311 304.6174,-150.2423 403.5402,-112.5714 409.1233,-110.4453 415.1251,-108.3636 420.9693,-106.4417"/>
<polygon fill="#000000" fill-opacity="0.200000" stroke="#000000" stroke-opacity="0.200000" points="421.6759,-108.4204 426.7397,-104.5774 420.3846,-104.4238 421.6759,-108.4204"/>
</g>
<!-- src/routers/cartRoutes.ts&#45;&gt;node_modules/express&#45;validator -->
<g id="edge40" class="edge">
<title>src/routers/cartRoutes.ts-&gt;node_modules/express-validator</title>
<path fill="none" stroke="#000000" stroke-opacity="0.200000" d="M162.7241,-465.5456C168.6622,-463.1445 174.1532,-459.6479 178.0193,-454.5714 191.2922,-437.1432 173.3791,-275.4639 186.0193,-257.5714 243.9065,-175.6309 329.007,-248.6615 395.5402,-173.5714 404.6915,-163.2432 394.0178,-153.5586 403.5402,-143.5714 404.5156,-142.5484 405.556,-141.5907 406.6502,-140.6939"/>
<polygon fill="#000000" fill-opacity="0.200000" stroke="#000000" stroke-opacity="0.200000" points="408.0312,-142.2914 411.7564,-137.1404 405.632,-138.8441 408.0312,-142.2914"/>
</g>
<!-- src/routers/cartRoutes.ts&#45;&gt;src/controllers/cartController.ts -->
<g id="edge37" class="edge">
<title>src/routers/cartRoutes.ts-&gt;src/controllers/cartController.ts</title>
<path fill="none" stroke="#000000" stroke-width="2" stroke-opacity="0.200000" d="M162.608,-478.819C173.1472,-481.3314 184.8925,-484.1312 196.0255,-486.7851"/>
<polygon fill="#000000" fill-opacity="0.200000" stroke="#000000" stroke-width="2" stroke-opacity="0.200000" points="195.8126,-488.8931 202.136,-488.2417 196.7866,-484.8076 195.8126,-488.8931"/>
</g>
<!-- src/routers/cartRoutes.ts&#45;&gt;src/helper.ts -->
<g id="edge38" class="edge">
<title>src/routers/cartRoutes.ts-&gt;src/helper.ts</title>
<path fill="none" stroke="#000000" stroke-width="2" stroke-opacity="0.200000" d="M162.6892,-465.2134C168.555,-462.8356 174.0278,-459.4326 178.0193,-454.5714 197.8904,-430.3706 165.4135,-408.1499 186.0193,-384.5714 191.5718,-378.2179 199.5551,-374.5437 207.7342,-372.4687"/>
<polygon fill="#000000" fill-opacity="0.200000" stroke="#000000" stroke-width="2" stroke-opacity="0.200000" points="208.5391,-374.4468 213.9898,-371.1758 207.689,-370.3337 208.5391,-374.4468"/>
</g>
<!-- src/routers/productRoutes.ts -->
<g id="node32" class="node">
<title>src/routers/productRoutes.ts</title>
<g id="a_node32"><a xlink:href="src/routers/productRoutes.ts" xlink:title="productRoutes.ts">
<path fill="#ddfeff" stroke="#000000" d="M163.8283,-386.8725C163.8283,-386.8725 92.191,-386.8725 92.191,-386.8725 89.0907,-386.8725 85.9903,-383.7721 85.9903,-380.6718 85.9903,-380.6718 85.9903,-374.4711 85.9903,-374.4711 85.9903,-371.3707 89.0907,-368.2704 92.191,-368.2704 92.191,-368.2704 163.8283,-368.2704 163.8283,-368.2704 166.9286,-368.2704 170.029,-371.3707 170.029,-374.4711 170.029,-374.4711 170.029,-380.6718 170.029,-380.6718 170.029,-383.7721 166.9286,-386.8725 163.8283,-386.8725"/>
<text text-anchor="start" x="94" y="-374.8714" font-family="Helvetica,sans-Serif" font-size="9.00" fill="#000000">productRoutes.ts</text>
</a>
</g>
</g>
<!-- src/routers/productRoutes.ts&#45;&gt;node_modules/express -->
<g id="edge43" class="edge">
<title>src/routers/productRoutes.ts-&gt;node_modules/express</title>
<path fill="none" stroke="#000000" stroke-opacity="0.200000" d="M129.0099,-368.0105C133.5738,-325.9674 153.6059,-157.8269 186.0193,-117.5714 246.3991,-42.5833 314.8141,-10.1097 395.5402,-62.5714 402.8808,-67.3419 397.0189,-74.7306 403.5402,-80.5714 408.4487,-84.9677 414.569,-88.1567 420.8317,-90.4697"/>
<polygon fill="#000000" fill-opacity="0.200000" stroke="#000000" stroke-opacity="0.200000" points="420.2371,-92.4847 426.5927,-92.3572 421.5448,-88.4934 420.2371,-92.4847"/>
</g>
<!-- src/routers/productRoutes.ts&#45;&gt;node_modules/express&#45;validator -->
<g id="edge44" class="edge">
<title>src/routers/productRoutes.ts-&gt;node_modules/express-validator</title>
<path fill="none" stroke="#000000" stroke-opacity="0.200000" d="M129.2704,-367.8686C134.369,-330.1818 154.6995,-194.239 186.0193,-166.5714 246.3172,-113.3048 345.7776,-113.8531 405.0167,-120.0527"/>
<polygon fill="#000000" fill-opacity="0.200000" stroke="#000000" stroke-opacity="0.200000" points="405.1337,-122.1783 411.3282,-120.7505 405.5953,-118.0038 405.1337,-122.1783"/>
</g>
<!-- src/routers/productRoutes.ts&#45;&gt;src/controllers/productController.ts -->
<g id="edge41" class="edge">
<title>src/routers/productRoutes.ts-&gt;src/controllers/productController.ts</title>
<path fill="none" stroke="#000000" stroke-width="2" stroke-opacity="0.200000" d="M166.6948,-386.9403C173.1465,-388.4935 179.7709,-390.0824 186.0193,-391.5714 189.1348,-392.3139 192.3499,-393.0773 195.5889,-393.8445"/>
<polygon fill="#000000" fill-opacity="0.200000" stroke="#000000" stroke-width="2" stroke-opacity="0.200000" points="195.1065,-395.8883 201.4288,-395.2257 196.0732,-391.801 195.1065,-395.8883"/>
</g>
<!-- src/routers/productRoutes.ts&#45;&gt;src/helper.ts -->
<g id="edge42" class="edge">
<title>src/routers/productRoutes.ts-&gt;src/helper.ts</title>
<path fill="none" stroke="#000000" stroke-width="2" stroke-opacity="0.200000" d="M170.185,-374.9649C182.7179,-374.1903 196.2632,-373.3532 208.1345,-372.6195"/>
<polygon fill="#000000" fill-opacity="0.200000" stroke="#000000" stroke-width="2" stroke-opacity="0.200000" points="208.3166,-374.7124 214.1756,-372.2462 208.0575,-370.5204 208.3166,-374.7124"/>
</g>
<!-- src/routers/reviewRoutes.ts -->
<g id="node33" class="node">
<title>src/routers/reviewRoutes.ts</title>
<g id="a_node33"><a xlink:href="src/routers/reviewRoutes.ts" xlink:title="reviewRoutes.ts">
<path fill="#ddfeff" stroke="#000000" d="M161.8151,-448.8725C161.8151,-448.8725 94.2042,-448.8725 94.2042,-448.8725 91.1038,-448.8725 88.0034,-445.7721 88.0034,-442.6718 88.0034,-442.6718 88.0034,-436.4711 88.0034,-436.4711 88.0034,-433.3707 91.1038,-430.2704 94.2042,-430.2704 94.2042,-430.2704 161.8151,-430.2704 161.8151,-430.2704 164.9155,-430.2704 168.0159,-433.3707 168.0159,-436.4711 168.0159,-436.4711 168.0159,-442.6718 168.0159,-442.6718 168.0159,-445.7721 164.9155,-448.8725 161.8151,-448.8725"/>
<text text-anchor="start" x="96.0065" y="-436.8714" font-family="Helvetica,sans-Serif" font-size="9.00" fill="#000000">reviewRoutes.ts</text>
</a>
</g>
</g>
<!-- src/routers/reviewRoutes.ts&#45;&gt;node_modules/express -->
<g id="edge47" class="edge">
<title>src/routers/reviewRoutes.ts-&gt;node_modules/express</title>
<path fill="none" stroke="#000000" stroke-opacity="0.200000" d="M168.1964,-431.9743C171.9881,-429.817 175.3897,-427.0687 178.0193,-423.5714 196.9238,-398.4286 165.9583,-164.8016 186.0193,-140.5714 200.8268,-122.6866 351.6245,-106.2542 420.1844,-99.6434"/>
<polygon fill="#000000" fill-opacity="0.200000" stroke="#000000" stroke-opacity="0.200000" points="420.7822,-101.6959 426.5552,-99.0346 420.3826,-97.515 420.7822,-101.6959"/>
</g>
<!-- src/routers/reviewRoutes.ts&#45;&gt;node_modules/express&#45;validator -->
<g id="edge48" class="edge">
<title>src/routers/reviewRoutes.ts-&gt;node_modules/express-validator</title>
<path fill="none" stroke="#000000" stroke-opacity="0.200000" d="M168.1593,-431.9462C171.9577,-429.794 175.371,-427.0545 178.0193,-423.5714 191.816,-405.4257 172.2998,-236.7756 186.0193,-218.5714 189.7072,-213.678 390.1075,-152.4054 395.5402,-149.5714 399.4807,-147.5158 399.5896,-145.6075 403.5402,-143.5714 406.5922,-141.9985 409.8284,-140.5431 413.1293,-139.2045"/>
<polygon fill="#000000" fill-opacity="0.200000" stroke="#000000" stroke-opacity="0.200000" points="414.2575,-141.0217 419.1149,-136.921 412.7605,-137.0976 414.2575,-141.0217"/>
</g>
<!-- src/routers/reviewRoutes.ts&#45;&gt;src/controllers/reviewController.ts -->
<g id="edge45" class="edge">
<title>src/routers/reviewRoutes.ts-&gt;src/controllers/reviewController.ts</title>
<path fill="none" stroke="#000000" stroke-width="2" stroke-opacity="0.200000" d="M167.306,-448.9389C176.6185,-451.1588 186.6231,-453.5437 196.1711,-455.8198"/>
<polygon fill="#000000" fill-opacity="0.200000" stroke="#000000" stroke-width="2" stroke-opacity="0.200000" points="195.7233,-457.8719 202.0468,-457.2205 196.6973,-453.7863 195.7233,-457.8719"/>
</g>
<!-- src/routers/reviewRoutes.ts&#45;&gt;src/helper.ts -->
<g id="edge46" class="edge">
<title>src/routers/reviewRoutes.ts-&gt;src/helper.ts</title>
<path fill="none" stroke="#000000" stroke-width="2" stroke-opacity="0.200000" d="M168.0995,-431.2337C171.808,-429.2065 175.2175,-426.6913 178.0193,-423.5714 189.8419,-410.4066 173.7975,-397.3665 186.0193,-384.5714 191.793,-378.5269 199.7722,-374.947 207.8728,-372.8634"/>
<polygon fill="#000000" fill-opacity="0.200000" stroke="#000000" stroke-width="2" stroke-opacity="0.200000" points="208.626,-374.8501 214.0565,-371.5457 207.7506,-370.7424 208.626,-374.8501"/>
</g>
<!-- src/routers/userRoutes.ts -->
<g id="node34" class="node">
<title>src/routers/userRoutes.ts</title>
<g id="a_node34"><a xlink:href="src/routers/userRoutes.ts" xlink:title="userRoutes.ts">
<path fill="#ddfeff" stroke="#000000" d="M157.3226,-417.8725C157.3226,-417.8725 98.6967,-417.8725 98.6967,-417.8725 95.5963,-417.8725 92.496,-414.7721 92.496,-411.6718 92.496,-411.6718 92.496,-405.4711 92.496,-405.4711 92.496,-402.3707 95.5963,-399.2704 98.6967,-399.2704 98.6967,-399.2704 157.3226,-399.2704 157.3226,-399.2704 160.423,-399.2704 163.5233,-402.3707 163.5233,-405.4711 163.5233,-405.4711 163.5233,-411.6718 163.5233,-411.6718 163.5233,-414.7721 160.423,-417.8725 157.3226,-417.8725"/>
<text text-anchor="start" x="100.2536" y="-405.8714" font-family="Helvetica,sans-Serif" font-size="9.00" fill="#000000">userRoutes.ts</text>
</a>
</g>
</g>
<!-- src/routers/userRoutes.ts&#45;&gt;node_modules/express -->
<g id="edge51" class="edge">
<title>src/routers/userRoutes.ts-&gt;node_modules/express</title>
<path fill="none" stroke="#000000" stroke-opacity="0.200000" d="M163.532,-403.2664C169.1724,-400.874 174.3476,-397.4521 178.0193,-392.5714 196.5963,-367.8771 166.3064,-138.3688 186.0193,-114.5714 220.4182,-73.0451 250.9189,-94.3831 304.5281,-88.5714 344.7423,-84.2119 355.1845,-85.8133 395.5402,-88.5714 403.656,-89.1261 412.3636,-90.1106 420.5082,-91.2036"/>
<polygon fill="#000000" fill-opacity="0.200000" stroke="#000000" stroke-opacity="0.200000" points="420.3747,-93.3053 426.6075,-92.0553 420.9556,-89.1456 420.3747,-93.3053"/>
</g>
<!-- src/routers/userRoutes.ts&#45;&gt;node_modules/express&#45;validator -->
<g id="edge52" class="edge">
<title>src/routers/userRoutes.ts-&gt;node_modules/express-validator</title>
<path fill="none" stroke="#000000" stroke-opacity="0.200000" d="M163.7398,-403.125C169.2866,-400.7414 174.3756,-397.3589 178.0193,-392.5714 191.4886,-374.8741 171.9259,-209.7759 186.0193,-192.5714 213.4598,-159.0733 336.0016,-140.4471 405.4159,-132.4109"/>
<polygon fill="#000000" fill-opacity="0.200000" stroke="#000000" stroke-opacity="0.200000" points="405.8278,-134.4776 411.5516,-131.7121 405.3525,-130.3046 405.8278,-134.4776"/>
</g>
<!-- src/routers/userRoutes.ts&#45;&gt;src/controllers/userController.ts -->
<g id="edge49" class="edge">
<title>src/routers/userRoutes.ts-&gt;src/controllers/userController.ts</title>
<path fill="none" stroke="#000000" stroke-width="2" stroke-opacity="0.200000" d="M163.5363,-417.0403C173.8273,-419.4935 185.2034,-422.2053 196.0043,-424.7801"/>
<polygon fill="#000000" fill-opacity="0.200000" stroke="#000000" stroke-width="2" stroke-opacity="0.200000" points="195.6117,-426.8452 201.9351,-426.1939 196.5856,-422.7597 195.6117,-426.8452"/>
</g>
<!-- src/routers/userRoutes.ts&#45;&gt;src/helper.ts -->
<g id="edge50" class="edge">
<title>src/routers/userRoutes.ts-&gt;src/helper.ts</title>
<path fill="none" stroke="#000000" stroke-width="2" stroke-opacity="0.200000" d="M163.6432,-399.5012C168.6428,-397.5699 173.5829,-395.2763 178.0193,-392.5714 182.3126,-389.9538 181.6476,-387.0558 186.0193,-384.5714 192.6737,-380.7898 200.3508,-378.0153 207.8251,-375.9846"/>
<polygon fill="#000000" fill-opacity="0.200000" stroke="#000000" stroke-width="2" stroke-opacity="0.200000" points="208.7099,-377.929 214.029,-374.4479 207.7001,-373.8522 208.7099,-377.929"/>
</g>
<!-- src/routes.ts -->
<g id="node35" class="node">
<title>src/routes.ts</title>
<g id="a_node35"><a xlink:href="src/routes.ts" xlink:title="routes.ts">
<path fill="#ddfeff" stroke="#000000" d="M63.7993,-432.8725C63.7993,-432.8725 22.2007,-432.8725 22.2007,-432.8725 19.1004,-432.8725 16,-429.7721 16,-426.6718 16,-426.6718 16,-420.4711 16,-420.4711 16,-417.3707 19.1004,-414.2704 22.2007,-414.2704 22.2007,-414.2704 63.7993,-414.2704 63.7993,-414.2704 66.8996,-414.2704 70,-417.3707 70,-420.4711 70,-420.4711 70,-426.6718 70,-426.6718 70,-429.7721 66.8996,-432.8725 63.7993,-432.8725"/>
<text text-anchor="start" x="25.7457" y="-420.8714" font-family="Helvetica,sans-Serif" font-size="9.00" fill="#000000">routes.ts</text>
</a>
</g>
</g>
<!-- src/routes.ts&#45;&gt;node_modules/express -->
<g id="edge59" class="edge">
<title>src/routes.ts-&gt;node_modules/express</title>
<path fill="none" stroke="#000000" stroke-opacity="0.200000" d="M44.9661,-414.2146C56.6315,-359.6649 118.5476,-83.4614 186.0193,-35.5714 223.9894,-8.6211 359.9604,-3.536 395.5402,-33.5714 411.7317,-47.2398 389.6389,-64.5795 403.5402,-80.5714 408.0472,-85.7562 414.229,-89.2762 420.7169,-91.6619"/>
<polygon fill="#000000" fill-opacity="0.200000" stroke="#000000" stroke-opacity="0.200000" points="420.3682,-93.7535 426.7218,-93.5491 421.6275,-89.7467 420.3682,-93.7535"/>
</g>
<!-- src/routes.ts&#45;&gt;node_modules/morgan -->
<g id="edge60" class="edge">
<title>src/routes.ts-&gt;node_modules/morgan</title>
<path fill="none" stroke="#000000" stroke-opacity="0.200000" d="M43.2293,-414.1741C44.6763,-358.2012 53.2917,-70.1747 78,-40.5714 133.0385,25.3708 390.729,-8.659 395.5402,-10.5714 415.8509,-18.6448 433.1758,-37.5301 443.5277,-50.9121"/>
<polygon fill="#000000" fill-opacity="0.200000" stroke="#000000" stroke-opacity="0.200000" points="441.9946,-52.3683 447.2722,-55.9121 445.3564,-49.8507 441.9946,-52.3683"/>
</g>
<!-- src/routes.ts&#45;&gt;src/helper.ts -->
<g id="edge53" class="edge">
<title>src/routes.ts-&gt;src/helper.ts</title>
<path fill="none" stroke="#000000" stroke-width="2" stroke-opacity="0.200000" d="M44.3647,-432.9798C48.2625,-458.3947 60.3146,-527.4022 78,-540.5714 113.6539,-567.1208 145.7914,-571.189 178.0193,-540.5714 190.6023,-528.6172 175.0125,-397.991 186.0193,-384.5714 191.4204,-377.9864 199.4347,-374.2467 207.6948,-372.1834"/>
<polygon fill="#000000" fill-opacity="0.200000" stroke="#000000" stroke-width="2" stroke-opacity="0.200000" points="208.5511,-374.1534 214.0201,-370.913 207.724,-370.0357 208.5511,-374.1534"/>
</g>
<!-- src/routes.ts&#45;&gt;src/routers/auth.ts -->
<g id="edge54" class="edge">
<title>src/routes.ts-&gt;src/routers/auth.ts</title>
<path fill="none" stroke="#000000" stroke-width="2" stroke-opacity="0.200000" d="M45.8604,-433.0061C50.4517,-446.5795 60.7455,-471.525 78,-485.5714 82.9309,-489.5855 88.8874,-492.6001 94.9444,-494.8617"/>
<polygon fill="#000000" fill-opacity="0.200000" stroke="#000000" stroke-width="2" stroke-opacity="0.200000" points="94.6445,-496.9753 101.0008,-496.8814 95.9733,-492.991 94.6445,-496.9753"/>
</g>
<!-- src/routes.ts&#45;&gt;src/routers/cartRoutes.ts -->
<g id="edge55" class="edge">
<title>src/routes.ts-&gt;src/routers/cartRoutes.ts</title>
<path fill="none" stroke="#000000" stroke-width="2" stroke-opacity="0.200000" d="M51.6803,-433.1478C58.3086,-439.9571 67.9816,-448.8717 78,-454.5714 80.9712,-456.2618 84.145,-457.8003 87.3984,-459.1951"/>
<polygon fill="#000000" fill-opacity="0.200000" stroke="#000000" stroke-width="2" stroke-opacity="0.200000" points="86.9625,-461.282 93.3136,-461.5524 88.5173,-457.3804 86.9625,-461.282"/>
</g>
<!-- src/routes.ts&#45;&gt;src/routers/productRoutes.ts -->
<g id="edge56" class="edge">
<title>src/routes.ts-&gt;src/routers/productRoutes.ts</title>
<path fill="none" stroke="#000000" stroke-width="2" stroke-opacity="0.200000" d="M52.0201,-414.0386C58.6664,-407.4928 68.2168,-399.0327 78,-393.5714 80.8356,-391.9885 83.8505,-390.5363 86.9398,-389.2091"/>
<polygon fill="#000000" fill-opacity="0.200000" stroke="#000000" stroke-width="2" stroke-opacity="0.200000" points="87.7724,-391.1378 92.5583,-386.9539 86.2078,-387.2401 87.7724,-391.1378"/>
</g>
<!-- src/routes.ts&#45;&gt;src/routers/reviewRoutes.ts -->
<g id="edge57" class="edge">
<title>src/routes.ts-&gt;src/routers/reviewRoutes.ts</title>
<path fill="none" stroke="#000000" stroke-width="2" stroke-opacity="0.200000" d="M70.3655,-428.722C74.0604,-429.4174 77.9309,-430.1459 81.843,-430.8822"/>
<polygon fill="#000000" fill-opacity="0.200000" stroke="#000000" stroke-width="2" stroke-opacity="0.200000" points="81.7208,-432.996 88.0057,-432.0421 82.4977,-428.8685 81.7208,-432.996"/>
</g>
<!-- src/routes.ts&#45;&gt;src/routers/userRoutes.ts -->
<g id="edge58" class="edge">
<title>src/routes.ts-&gt;src/routers/userRoutes.ts</title>
<path fill="none" stroke="#000000" stroke-width="2" stroke-opacity="0.200000" d="M70.3655,-418.7428C75.3891,-417.8563 80.7373,-416.9127 86.0734,-415.9711"/>
<polygon fill="#000000" fill-opacity="0.200000" stroke="#000000" stroke-width="2" stroke-opacity="0.200000" points="86.7682,-417.981 92.312,-414.8703 86.0384,-413.8449 86.7682,-417.981"/>
</g>
</g>
</svg>