<?xml version="1.0" encoding="UTF-8"?>
<!-- Generated by Pixelmator Pro 3.5.8 -->
<svg width="644" height="319" viewBox="0 0 644 319" xmlns="http://www.w3.org/2000/svg" xmlns:xlink="http://www.w3.org/1999/xlink">
    <g id="Group">
        <g id="g1">
            <path id="Path" fill="#7acff5" stroke="#000000" d="M 162.5 102.5 L 232.5 102.5 L 232.5 143.5 L 162.5 143.5 L 162.5 102.5 M 172.5 92.5 L 242.5 92.5 L 232.5 102.5 L 162.5 102.5 L 172.5 92.5 M 242.5 92.5 L 242.5 133.5 L 232.5 143.5 L 232.5 102.5"/>
            <path id="path1" fill="none" stroke="#000000" d="M 162.5 102.5 L 232.5 102.5 L 232.5 143.5 L 162.5 143.5 L 162.5 102.5 M 172.5 92.5 L 242.5 92.5 L 232.5 102.5 L 162.5 102.5 L 172.5 92.5 M 242.5 92.5 L 242.5 133.5 L 232.5 143.5 L 232.5 102.5"/>
        </g>
        <g id="g2">
            <g id="g3">
                <g id="g4">
                    <g id="g5">
                        <defs>
                            <path id="path2" d="M 163 116.600006 L 231 116.600006"/>
                        </defs>
                        <text id="Browser-Customer" xml:space="preserve"><textPath xlink:href="#path2" startOffset="1"><tspan font-family="Helvetica" font-size="12" font-weight="700" fill="#000000" baseline-shift="2" xml:space="preserve">Browser Customer</tspan></textPath></text>
                    </g>
                </g>
            </g>
        </g>
        <g id="g6">
            <path id="path3" fill="#7acff5" stroke="#000000" d="M 152 10.5 L 243 10.5 L 243 50.5 L 152 50.5 L 152 10.5 M 162 0.5 L 253 0.5 L 243 10.5 L 152 10.5 L 162 0.5 M 253 0.5 L 253 40.5 L 243 50.5 L 243 10.5"/>
            <path id="path4" fill="none" stroke="#000000" d="M 152 10.5 L 243 10.5 L 243 50.5 L 152 50.5 L 152 10.5 M 162 0.5 L 253 0.5 L 243 10.5 L 152 10.5 L 162 0.5 M 253 0.5 L 253 40.5 L 243 50.5 L 243 10.5"/>
        </g>
        <g id="g7">
            <g id="g8">
                <g id="g9">
                    <g id="g10">
                        <defs>
                            <path id="path5" d="M 160.484375 24.600006 L 234.515625 24.600006"/>
                        </defs>
                        <text id="Pc-Customer" xml:space="preserve"><textPath xlink:href="#path5" startOffset="1.515625"><tspan font-family="Helvetica" font-size="12" font-weight="700" fill="#000000" baseline-shift="2" xml:space="preserve">Pc Customer</tspan></textPath></text>
                    </g>
                </g>
            </g>
        </g>
        <g id="g11">
            <path id="path6" fill="#7acff5" stroke="#000000" d="M 0.5 103.5 L 91.5 103.5 L 91.5 143.5 L 0.5 143.5 L 0.5 103.5 M 10.5 93.5 L 101.5 93.5 L 91.5 103.5 L 0.5 103.5 L 10.5 93.5 M 101.5 93.5 L 101.5 133.5 L 91.5 143.5 L 91.5 103.5"/>
            <path id="path7" fill="none" stroke="#000000" d="M 0.5 103.5 L 91.5 103.5 L 91.5 143.5 L 0.5 143.5 L 0.5 103.5 M 10.5 93.5 L 101.5 93.5 L 91.5 103.5 L 0.5 103.5 L 10.5 93.5 M 101.5 93.5 L 101.5 133.5 L 91.5 143.5 L 91.5 103.5"/>
        </g>
        <g id="g12">
            <g id="g13">
                <g id="g14">
                    <g id="g15">
                        <defs>
                            <path id="path8" d="M 1 117.600006 L 90 117.600006"/>
                        </defs>
                        <text id="Smartphone-Customer" xml:space="preserve"><textPath xlink:href="#path8" startOffset="1"><tspan font-family="Helvetica" font-size="12" font-weight="700" fill="#000000" baseline-shift="2" xml:space="preserve">Smartphone Customer</tspan></textPath></text>
                    </g>
                </g>
            </g>
        </g>
        <g id="g16">
            <path id="path9" fill="#7acff5" stroke="#000000" d="M 0.5 277.5 L 91.5 277.5 L 91.5 317.5 L 0.5 317.5 L 0.5 277.5 M 10.5 267.5 L 101.5 267.5 L 91.5 277.5 L 0.5 277.5 L 10.5 267.5 M 101.5 267.5 L 101.5 307.5 L 91.5 317.5 L 91.5 277.5"/>
            <path id="path10" fill="none" stroke="#000000" d="M 0.5 277.5 L 91.5 277.5 L 91.5 317.5 L 0.5 317.5 L 0.5 277.5 M 10.5 267.5 L 101.5 267.5 L 91.5 277.5 L 0.5 277.5 L 10.5 267.5 M 101.5 267.5 L 101.5 307.5 L 91.5 317.5 L 91.5 277.5"/>
        </g>
        <g id="g17">
            <g id="g18">
                <g id="g19">
                    <g id="g20">
                        <defs>
                            <path id="path11" d="M 11.8125 291.600006 L 79.171875 291.600006"/>
                        </defs>
                        <text id="Pc-Manager" xml:space="preserve"><textPath xlink:href="#path11" startOffset="1.179688"><tspan font-family="Helvetica" font-size="12" font-weight="700" fill="#000000" baseline-shift="2" xml:space="preserve">Pc Manager</tspan></textPath></text>
                    </g>
                </g>
            </g>
        </g>
        <g id="g21">
            <path id="path12" fill="#7acff5" stroke="#000000" d="M 408.5 153.5 L 633.5 153.5 L 633.5 267.5 L 408.5 267.5 L 408.5 153.5 M 418.5 143.5 L 643.5 143.5 L 633.5 153.5 L 408.5 153.5 L 418.5 143.5 M 643.5 143.5 L 643.5 257.5 L 633.5 267.5 L 633.5 153.5"/>
            <path id="path13" fill="none" stroke="#000000" d="M 408.5 153.5 L 633.5 153.5 L 633.5 267.5 L 408.5 267.5 L 408.5 153.5 M 418.5 143.5 L 643.5 143.5 L 633.5 153.5 L 408.5 153.5 L 418.5 143.5 M 643.5 143.5 L 643.5 257.5 L 633.5 267.5 L 633.5 153.5"/>
        </g>
        <g id="g22">
            <g id="g23">
                <g id="g24">
                    <g id="g25">
                        <defs>
                            <path id="path14" d="M 501.8125 167.600006 L 539.1875 167.600006"/>
                        </defs>
                        <text id="Server" xml:space="preserve"><textPath xlink:href="#path14" startOffset="1.1875"><tspan font-family="Helvetica" font-size="12" font-weight="700" fill="#000000" baseline-shift="2" xml:space="preserve">Server</tspan></textPath></text>
                    </g>
                </g>
            </g>
        </g>
        <g id="g26">
            <path id="path15" fill="#7acff5" stroke="#000000" d="M 468.5 185.5 L 583.5 185.5 L 583.5 225.5 L 468.5 225.5 Z"/>
            <path id="path16" fill="none" stroke="#000000" d="M 468.5 185.5 L 583.5 185.5 L 583.5 225.5 L 468.5 225.5 Z"/>
            <path id="path17" fill="none" stroke="#000000" d="M 568.5 190.5 L 574.5 190.5"/>
            <path id="path18" fill="none" stroke="#000000" d="M 574.5 190.5 L 578.5 194.5"/>
            <path id="path19" fill="none" stroke="#000000" d="M 578.5 194.5 L 578.5 202.5"/>
            <path id="path20" fill="none" stroke="#000000" d="M 578.5 202.5 L 568.5 202.5"/>
            <path id="path21" fill="none" stroke="#000000" d="M 568.5 202.5 L 568.5 190.5"/>
            <path id="path22" fill="none" stroke="#000000" d="M 574.5 190.5 L 574.5 194.5"/>
            <path id="path23" fill="none" stroke="#000000" d="M 574.5 194.5 L 578.5 194.5"/>
        </g>
        <g id="g27">
            <g id="g28">
                <g id="g29">
                    <g id="g30">
                        <defs>
                            <path id="path24" d="M 481.96875 202.600006 L 550.015625 202.600006"/>
                        </defs>
                        <text id="artifactDB" xml:space="preserve"><textPath xlink:href="#path24" startOffset="1"><tspan font-family="Helvetica" font-size="12" font-weight="700" fill="#000000" baseline-shift="2" xml:space="preserve">&lt;&lt;artifact>>DB</tspan></textPath></text>
                        <defs>
                            <path id="path25" d="M 481.96875 202.600006 L 550.015625 202.600006"/>
                        </defs>
                        <text id="text1" xml:space="preserve"><textPath xlink:href="#path25" startOffset="1"><tspan font-family="Helvetica" font-size="12" font-weight="700" fill="#000000" baseline-shift="2" xml:space="preserve">&lt;&lt;artifact>>DB</tspan></textPath></text>
                    </g>
                </g>
            </g>
        </g>
        <g id="g31">
            <path id="path26" fill="none" stroke="#000000" d="M 201.5 50.5 L 200.5 102.5"/>
        </g>
        <g id="g32">
            <path id="path27" fill="none" stroke="#000000" d="M 101.5 118.5 L 162.5 118.5"/>
        </g>
        <g id="g33">
            <path id="path28" fill="#7acff5" stroke="#000000" d="M 162.5 277.5 L 232.5 277.5 L 232.5 318.5 L 162.5 318.5 L 162.5 277.5 M 172.5 267.5 L 242.5 267.5 L 232.5 277.5 L 162.5 277.5 L 172.5 267.5 M 242.5 267.5 L 242.5 308.5 L 232.5 318.5 L 232.5 277.5"/>
            <path id="path29" fill="none" stroke="#000000" d="M 162.5 277.5 L 232.5 277.5 L 232.5 318.5 L 162.5 318.5 L 162.5 277.5 M 172.5 267.5 L 242.5 267.5 L 232.5 277.5 L 162.5 277.5 L 172.5 267.5 M 242.5 267.5 L 242.5 308.5 L 232.5 318.5 L 232.5 277.5"/>
        </g>
        <g id="g34">
            <g id="g35">
                <g id="g36">
                    <g id="g37">
                        <defs>
                            <path id="path30" d="M 163 291.600006 L 231 291.600006"/>
                        </defs>
                        <text id="Browser-Manager" xml:space="preserve"><textPath xlink:href="#path30" startOffset="1"><tspan font-family="Helvetica" font-size="12" font-weight="700" fill="#000000" baseline-shift="2" xml:space="preserve">Browser Manager</tspan></textPath></text>
                    </g>
                </g>
            </g>
        </g>
        <g id="g38">
            <path id="path31" fill="none" stroke="#000000" d="M 101.5 293 L 162.5 293.5"/>
        </g>
        <g id="g39">
            <path id="path32" fill="none" stroke="#000000" d="M 242.5 118 L 515.5 118 C 522.166667 118 525.5 121.333333 525.5 128 L 525.5 144.5"/>
        </g>
        <g id="g40">
            <g id="g41">
                <text id="HTTP" xml:space="preserve" x="383.140381" y="134" font-family="Helvetica" font-size="11" fill="#000000">HTTP</text>
            </g>
        </g>
        <g id="g42">
            <path id="path33" fill="none" stroke="#000000" d="M 242.5 293 L 512.5 293 C 519.166667 293 522.5 289.666667 522.5 283 L 522.5 266.5"/>
        </g>
        <g id="g43">
            <g id="g44">
                <text id="text2" xml:space="preserve" x="376.140381" y="289" font-family="Helvetica" font-size="11" fill="#000000">HTTP</text>
            </g>
        </g>
        <g id="g45">
            <path id="path34" fill="#7acff5" stroke="#000000" d="M 277.5 172 L 342.5 172 L 342.5 187 L 357.5 187 L 357.5 223 L 277.5 223 Z"/>
            <path id="path35" fill="none" stroke="#000000" d="M 277.5 172 L 342.5 172 L 357.5 187 L 342.5 187 L 342.5 172 L 357.5 187 L 357.5 223 L 277.5 223 Z"/>
        </g>
        <g id="g46">
            <g id="g47">
                <g id="g48">
                    <g id="g49">
                        <defs>
                            <path id="path36" d="M 279 191.600006 L 357 191.600006"/>
                        </defs>
                        <text id="GET-POST-DELETE-PATCH" xml:space="preserve"><textPath xlink:href="#path36" startOffset="1"><tspan font-family="Helvetica" font-size="12" fill="#000000" baseline-shift="2" xml:space="preserve">GET, POST, DELETE, PATCH</tspan></textPath></text>
                    </g>
                </g>
            </g>
        </g>
        <g id="g50">
            <path id="path37" fill="none" stroke="#000000" stroke-dasharray="4 4" stroke-dashoffset="0" d="M 296.5 172 L 296.5 120.5"/>
        </g>
        <g id="g51">
            <path id="path38" fill="none" stroke="#000000" stroke-dasharray="4 4" stroke-dashoffset="0" d="M 301.5 223 L 301.5 296.5"/>
        </g>
        <g id="g52">
            <path id="path39" fill="none" stroke="#000000" d="M 201.5 50.5 L 200.5 102.5"/>
        </g>
        <g id="g53">
            <path id="path40" fill="none" stroke="#000000" d="M 101.5 118.5 L 162.5 118.5"/>
        </g>
        <g id="g54">
            <path id="path41" fill="none" stroke="#000000" d="M 101.5 293 L 162.5 293.5"/>
        </g>
        <g id="g55">
            <path id="path42" fill="none" stroke="#000000" d="M 242.5 118 L 515.5 118 C 522.166667 118 525.5 121.333333 525.5 128 L 525.5 144.5"/>
        </g>
        <g id="g56">
            <g id="g57">
                <text id="text3" xml:space="preserve" x="383.140381" y="134" font-family="Helvetica" font-size="11" fill="#000000">HTTP</text>
            </g>
        </g>
        <g id="g58">
            <path id="path43" fill="none" stroke="#000000" d="M 242.5 293 L 512.5 293 C 519.166667 293 522.5 289.666667 522.5 283 L 522.5 266.5"/>
        </g>
        <g id="g59">
            <g id="g60">
                <text id="text4" xml:space="preserve" x="376.140381" y="289" font-family="Helvetica" font-size="11" fill="#000000">HTTP</text>
            </g>
        </g>
        <g id="g61">
            <path id="path44" fill="none" stroke="#000000" stroke-dasharray="4 4" stroke-dashoffset="0" d="M 296.5 172 L 296.5 120.5"/>
        </g>
        <g id="g62">
            <path id="path45" fill="none" stroke="#000000" stroke-dasharray="4 4" stroke-dashoffset="0" d="M 301.5 223 L 301.5 296.5"/>
        </g>
    </g>
    <g id="g63">
        <g id="g64"/>
    </g>
</svg>
